<?xml version="1.0" encoding="UTF-8" standalone="no"?>
<svg
   xmlns:dc="http://purl.org/dc/elements/1.1/"
   xmlns:cc="http://creativecommons.org/ns#"
   xmlns:rdf="http://www.w3.org/1999/02/22-rdf-syntax-ns#"
   xmlns:svg="http://www.w3.org/2000/svg"
   xmlns="http://www.w3.org/2000/svg"
   xmlns:sodipodi="http://sodipodi.sourceforge.net/DTD/sodipodi-0.dtd"
   xmlns:inkscape="http://www.inkscape.org/namespaces/inkscape"
   version="1.1"
   id="svg62"
   width="278.50061"
   height="219.15546"
   viewBox="0 0 278.50061 219.15546"
   sodipodi:docname="podemos_regadera_azul_.svg"
   inkscape:version="1.0.2 (e86c870879, 2021-01-15)">
  <metadata
     id="metadata68">
    <rdf:RDF>
      <cc:Work
         rdf:about="">
        <dc:format>image/svg+xml</dc:format>
        <dc:type
           rdf:resource="http://purl.org/dc/dcmitype/StillImage" />
        <dc:title></dc:title>
      </cc:Work>
    </rdf:RDF>
  </metadata>
  <defs
     id="defs66">
    <rect
       x="24.505095"
       y="171.42616"
       width="107.01728"
       height="40.180206"
       id="rect80" />
  </defs>
  <sodipodi:namedview
     pagecolor="#ffffff"
     bordercolor="#666666"
     borderopacity="1"
     objecttolerance="10"
     gridtolerance="10"
     guidetolerance="10"
     inkscape:pageopacity="0"
     inkscape:pageshadow="2"
     inkscape:window-width="1366"
     inkscape:window-height="747"
     id="namedview64"
     showgrid="false"
     fit-margin-top="0"
     fit-margin-left="0"
     fit-margin-right="0"
     fit-margin-bottom="0"
     inkscape:zoom="2.4441341"
     inkscape:cx="132.90206"
     inkscape:cy="116.83428"
     inkscape:window-x="0"
     inkscape:window-y="21"
     inkscape:window-maximized="0"
     inkscape:current-layer="g70"
     inkscape:document-rotation="0" />
  <g
     inkscape:groupmode="layer"
     inkscape:label="Image"
     id="g70"
     transform="translate(60.299337,2.2742799)">
    <text
       xml:space="preserve"
       id="text78"
       style="font-style:normal;font-variant:normal;font-weight:normal;font-stretch:normal;font-size:21.3333px;line-height:1.25;font-family:'Bitstream Vera Sans Mono';-inkscape-font-specification:'Bitstream Vera Sans Mono';white-space:pre;shape-inside:url(#rect80);fill:#000000;fill-opacity:1;stroke:none;"><tspan
         x="24.505859"
         y="190.30075"><tspan
           style="font-style:normal;font-variant:normal;font-weight:normal;font-stretch:normal;font-size:10.6667px;font-family:'Liberation Mono';-inkscape-font-specification:'Liberation Mono';fill:#0000ff">
</tspan></tspan><tspan
         style="visibility:hidden"
         x="24.505859"
         y="230.48044"><tspan
           dx="0 6.401062 6.401062 6.401062 6.401062 6.401062 6.401062"
           style="font-style:normal;font-variant:normal;font-weight:normal;font-stretch:normal;font-size:10.6667px;font-family:'Liberation Mono';-inkscape-font-specification:'Liberation Mono';fill:#0000ff">Podemo
</tspan></tspan><tspan
         style="visibility:hidden"
         x="24.505859"
         y="257.14706"><tspan
           dx="0 6.401062 6.401062 6.401062 6.401062 6.401062 6.401062 6.401062"
           style="font-style:normal;font-variant:normal;font-weight:normal;font-stretch:normal;font-size:10.6667px;font-family:'Liberation Mono';-inkscape-font-specification:'Liberation Mono';fill:#0000ff">Aprender</tspan></tspan></text>
    <path
       style="fill:#000080;stroke-width:0.64"
       d="m 77.131219,216.22393 c -10.71627,-0.80889 -10.39572,-0.76845 -10.9869,-1.38614 -0.30226,-0.31582 4.00755,-0.3654 9.95283,-0.1145 9.38205,0.39593 10.44531,0.33667 10.10008,-0.56298 -0.24696,-0.64358 -0.0339,-1.0055 0.59184,-1.0055 0.53773,0 0.80862,0.27355 0.60199,0.60789 -0.76231,1.23343 2.0784,1.65541 8.94015,1.32801 5.120391,-0.24431 6.603731,-0.48778 5.440001,-0.8929 -1.31148,-0.45657 -0.74824,-0.65691 3.1236,-1.11102 2.59798,-0.3047 5.11798,-0.88132 5.6,-1.28136 0.58276,-0.48364 0.8764,-0.5009 0.8764,-0.0515 0,0.37172 0.792,0.76699 1.76,0.87837 1.26492,0.14554 1.7071,0.51756 1.57195,1.3225 -0.17226,1.02591 0.63154,1.12 9.56786,1.12 6.05059,0 13.74224,-0.50251 20.25163,-1.32309 5.77262,-0.72771 10.64051,-1.17828 10.81752,-1.00127 0.177,0.177 -0.7876,0.50299 -2.14357,0.72441 -1.35597,0.22142 -4.7694,0.8149 -7.5854,1.31885 -2.816,0.50396 -9.152,1.2042 -14.08,1.55609 -10.70394,0.76434 -43.615261,0.6882 -54.399981,-0.12587 z m 30.399991,-1.68245 c 0,-0.29334 -0.85133,-0.53334 -1.89184,-0.53334 -1.04052,0 -1.74352,0.24 -1.56223,0.53334 0.42947,0.6949 3.45407,0.6949 3.45407,0 z m 5.35524,0.0305 c 0.17093,-0.27657 -0.24407,-0.50286 -0.92222,-0.50286 -0.67816,0 -1.23302,0.22629 -1.23302,0.50286 0,0.27657 0.41501,0.50286 0.92223,0.50286 0.50723,0 1.06209,-0.22629 1.23301,-0.50286 z m -59.122111,-0.50453 c -5.56229,-0.92061 -10.90685,-2.54782 -12.47312,-3.79757 -1.25383,-1.00044 -1.24893,-1.0127 0.24014,-0.59961 1.03187,0.28624 1.37949,0.1941 1.08223,-0.28687 -0.54916,-0.88856 -0.25327,-0.88707 1.99596,0.01 3.51357,1.40136 17.23484,3.1501 25.00167,3.18638 4.78582,0.0223 7.84,0.28643 7.84,0.67787 0,0.39562 -2.32214,0.57366 -6.06226,0.4648 -3.33425,-0.0971 -6.25975,0.0211 -6.50112,0.2624 -0.24137,0.24137 -0.75335,0.19225 -1.13774,-0.10915 -1.01207,-0.7936 -6.13888,-1.34478 -6.13888,-0.65998 0,0.3185 0.847,0.57909 1.88222,0.57909 1.03523,0 2.04777,0.26784 2.25009,0.59521 0.44406,0.7185 -2.37843,0.60439 -7.97919,-0.32259 z m -2.87312,-2.19264 c -0.704,-0.30252 -2,-0.5362 -2.88,-0.5193 -1.45182,0.0279 -1.42218,0.076 0.32,0.5193 2.66501,0.67813 4.13809,0.67813 2.56,0 z m -5.44,-1.28 c 0,-0.352 -0.504,-0.63559 -1.12,-0.6302 -0.95716,0.008 -0.98042,0.1 -0.16,0.6302 1.20781,0.78055 1.28,0.78055 1.28,0 z m 44.79999,3.2 c 0,-0.352 0.288,-0.64 0.64,-0.64 0.352,0 0.64,0.288 0.64,0.64 0,0.352 -0.288,0.64 -0.64,0.64 -0.352,0 -0.64,-0.288 -0.64,-0.64 z m -10.07999,-0.4584 c 0.96799,-0.14664 2.55199,-0.14664 3.51999,0 0.968,0.14664 0.176,0.26662 -1.76,0.26662 -1.93599,0 -2.72799,-0.11998 -1.75999,-0.26662 z m 36.839991,0.0212 c 0.462,-0.18487 1.01401,-0.16214 1.22667,0.0505 0.21267,0.21267 -0.16534,0.36393 -0.84,0.33614 -0.74557,-0.0307 -0.89721,-0.18236 -0.38667,-0.38666 z m -30.779491,-1.91713 c -0.91441,-0.24639 -1.06031,-0.72907 -0.73867,-2.4436 0.22045,-1.1751 0.12381,-2.63155 -0.21476,-3.23653 -0.48875,-0.87335 -0.70726,-0.48863 -1.06054,1.86724 -0.38942,2.59687 -0.63978,2.96724 -2.00575,2.96724 -1.42315,0 -1.56079,-0.25396 -1.56079,-2.88 v -2.88 h -3.19999 c -3.51195,0 -4.00511,0.36558 -1.68373,1.24817 0.94015,0.35744 1.64821,1.26334 1.86349,2.38416 0.44476,2.31558 0.12271,2.59979 -1.3923,1.22872 -0.79854,-0.72266 -1.36602,-0.86879 -1.6417,-0.42274 -0.81216,1.31411 -1.46579,0.65905 -1.87103,-1.87514 l -0.40885,-2.55683 -12.63504,0.0373 c -6.94927,0.0206 -13.06609,-0.1294 -13.59294,-0.33319 -1.728,-0.66841 -3.19774,-4.15812 -3.20185,-7.60235 l -0.004,-3.30814 -0.99296,1.90431 c -0.54613,1.04736 -0.8594,2.41507 -0.69614,3.03936 0.16325,0.62428 0.0358,1.29634 -0.28309,1.49347 -0.31896,0.19712 -0.62834,1.85341 -0.68751,3.68064 -0.0976,3.01294 -0.1318,3.08466 -0.36769,0.77034 -0.14305,-1.40354 -0.55143,-2.90292 -0.90751,-3.33197 -0.35607,-0.42904 -0.43411,-1.12519 -0.17342,-1.54699 0.27846,-0.45058 0.2034,-0.5997 -0.18199,-0.36151 -0.72648,0.44898 -5.59602,-4.52694 -9.28264,-9.48542 -2.85332,-3.83771 -2.41408,-3.28353 -7.54974,-9.52548 -5.87303,-7.13815 -11.48435,-14.68398 -11.47929,-15.43675 0.003,-0.352 0.83337,0.36 1.84667,1.58223 1.70648,2.05831 2.25302,2.26108 5.41472,2.00888 1.40882,-0.11237 1.82107,-2.05842 0.62182,-2.93533 -0.58789,-0.42987 -0.88255,-1.08311 -0.65479,-1.45162 0.22775,-0.36852 -0.0163,-0.83517 -0.54223,-1.03701 -0.52608,-0.20181 -0.95642,-0.66398 -0.95642,-1.02704 0,-0.97947 -2.38625,-3.1857 -4.18556,-3.8698 -0.86594,-0.32923 -1.57444,-0.99309 -1.57444,-1.47525 0,-0.48215 -0.576,-1.39792 -1.28,-2.03503 -0.704,-0.63711 -1.28498,-1.47375 -1.29106,-1.85919 -0.0123,-0.77774 -2.77447,-3.58081 -3.52859,-3.58081 -0.64614,0 -2.17465,2.06146 -2.2,2.96707 -0.0247,0.88279 4.72147,8.08234 6.06105,9.19409 0.52722,0.43757 0.9567,1.26431 0.95438,1.8372 -0.003,0.74391 -0.32314,0.57912 -1.12,-0.5765 -1.44923,-2.10173 -3.14727,-4.14171 -5.91578,-7.10708 -1.232,-1.3196 -3.248,-3.7391 -4.48,-5.37667 -3.21188,-4.26921 -13.76637,-17.06735 -16.16,-19.59527 -0.616,-0.65056 -1.12,-1.33459 -1.12,-1.52007 0,-0.18547 -1.7777,-2.66793 -3.95045,-5.51657 -4.14319,-5.43206 -6.8176,-7.57247 -9.48955,-7.59478 -0.88,-0.007 -3.76,-0.60602 -6.4,-1.33038 -2.64,-0.72436 -6.24,-1.60894 -8,-1.96572 -1.76,-0.35678 -3.488,-0.87641 -3.84,-1.15474 -0.352,-0.27833 -2.28429,-0.97746 -4.29397,-1.55363 -2.00968,-0.57617 -3.88985,-1.46907 -4.17815,-1.98424 -0.65149,-1.16413 -0.20393,-6.53659 0.45562,-5.4694 0.27137,0.43908 0.85568,-0.96578 1.36543,-3.282887 0.56542,-2.57014 1.51794,-4.7521 2.60635,-5.97042 l 1.71529,-1.92 1.32471,1.41324 c 0.7286,0.77728 1.32472,1.65898 1.32472,1.95932 0,0.30034 0.64292,1.23618 1.42871,2.07962 0.78579,0.84345 1.43379,1.97775 1.44,2.52068 0.007,0.63731 0.62785,0.997577 1.75108,1.016587 0.95689,0.0162 2.41545,0.66421 3.24125,1.44 0.8258,0.7758 2.007,1.41055 2.62489,1.41055 0.96985,0 6.51515,3.33514 7.43407,4.4711 0.83375,1.03069 5.30436,2.64054 5.84142,2.10347 1.15064,-1.15063 1.17927,-3.42402 0.048,-3.80766 -0.59916,-0.20318 -2.96138,-2.17542 -5.24938,-4.38276 -9.88336,-9.535087 -13.13907,-12.464157 -13.85398,-12.464157 -0.41865,0 -1.16348,-0.15438 -1.65518,-0.34306 -0.4917,-0.18868 -1.68716,0.39201 -2.65658,1.29044 -3.184,2.95083 -3.17284,0.9164 0.0123,-2.2495 1.69914,-1.68883 3.31079,-2.93375 3.58145,-2.766473 0.27066,0.167277 0.49211,-0.190823 0.49211,-0.79577 0,-1.210406 6.37782,-8.217305 7.5727,-8.319635 1.75481,-0.150285 1.96912,-0.302931 1.63773,-1.166515 -0.35545,-0.926272 1.80718,-3.569485 2.92048,-3.569485 0.336,0 1.34641,-0.735507 2.24536,-1.634458 0.89895,-0.89895 1.90746,-1.465728 2.24114,-1.2595 0.75552,0.466937 0.0924,2.397177 -1.06261,3.093292 -0.47395,0.285632 -0.68684,0.802298 -0.4731,1.148148 0.21375,0.345843 -0.0875,1.355417 -0.66935,2.243494 -0.87001,1.327795 -1.22665,1.474701 -2.00729,0.826829 -1.73029,-1.436013 -3.04637,0.765843 -2.93723,4.914105 0.0757,2.879264 0.45782,4.093888 1.86955,5.943458 0.97589,1.27855 2.59198,3.89969 3.59132,5.82475 0.99934,1.92506 2.50303,4.18616 3.34154,5.02467 1.93886,1.93886 2.52188,3.767967 1.56754,4.917887 -0.97699,1.17719 -0.19929,2.56129 0.91808,1.63395 0.44105,-0.36604 0.99141,-0.47602 1.22302,-0.24441 0.23162,0.23161 0.42112,0.0941 0.42112,-0.30547 0,-0.40487 0.45607,-0.55156 1.03005,-0.33131 0.94674,0.3633 0.94674,0.4419 0,0.97172 -0.56653,0.31704 -1.00732,1.21013 -0.97953,1.98464 0.0278,0.77451 0.19579,1.0482 0.37334,0.6082 0.64839,-1.60689 1.22072,-0.73187 1.34186,2.05155 0.0683,1.56835 -0.1571,3.02535 -0.50081,3.23777 -1.15739,0.71531 -0.69736,2.87068 0.61271,2.87068 1.54224,0 8.07194,6.33683 8.65337,8.39777 0.79849,2.83029 1.84042,4.40223 2.91796,4.40223 1.23971,0 3.59979,2.36459 2.97934,2.98504 -0.65422,0.65422 0.8786,2.13496 2.21007,2.13496 0.6609,0 1.20164,0.432 1.20164,0.96 0,0.528 0.31842,0.96 0.70761,0.96 1.18762,0 4.47708,3.07173 3.60216,3.36375 -0.43438,0.14498 0.30087,0.78131 1.63387,1.41407 1.33301,0.63276 2.83348,1.90461 3.33438,2.82633 0.5009,0.92171 0.92226,1.41522 0.93635,1.09666 0.0394,-0.89067 2.58563,1.62565 2.58563,2.55525 0,0.44973 0.576,1.0005 1.28,1.22394 0.704,0.22344 1.28,0.76454 1.28,1.20245 0,0.4379 0.576,1.41445 1.28,2.17011 0.704,0.75566 1.28,1.68014 1.28,2.0544 0,0.37426 0.65327,0.97813 1.45172,1.34193 1.53142,0.69776 4.30828,4.3012 4.30828,5.59071 0,0.41822 0.576,0.7604 1.28,0.7604 0.704,0 1.28,0.27958 1.28,0.62129 0,0.54192 3.59183,6.18826 4.49029,7.05871 1.62228,1.5717 3.77507,4.69063 3.52118,5.10143 -0.17439,0.28217 0.25568,0.66283 0.95573,0.84589 0.70004,0.18307 1.2728,0.62085 1.2728,0.97285 0,1.08834 -2.77969,-0.0203 -4.7991,-1.91405 -1.0565,-0.99075 -2.8569,-1.97849 -4.0009,-2.19497 -1.30642,-0.24721 -2.09879,-0.78366 -2.13053,-1.44238 -0.0278,-0.57682 -0.35446,-0.18477 -0.72594,0.87123 -0.37147,1.056 -0.95373,2.27245 -1.2939,2.70321 -0.90266,1.14305 2.56089,6.47859 5.72338,8.81679 1.42828,1.056 2.76149,2.64 2.9627,3.52 0.40189,1.75773 3.45017,5.52521 4.28486,5.2958 0.28856,-0.0793 0.70758,0.68862 0.93115,1.70653 0.36763,1.67379 2.24828,3.34467 2.24828,1.9975 0,-0.308 0.576,-0.40937 1.28,-0.22527 0.704,0.1841 1.28,0.73314 1.28,1.22008 0,0.48695 0.288,0.88536 0.64,0.88536 0.352,0 0.64,-1.25255 0.64,-2.78344 0,-5.77818 0.83553,-12.58852 1.53445,-12.50709 1.8695,0.21779 2.13109,-0.21622 2.06702,-3.42947 -0.0369,-1.848 0.002,-7.4928 0.0858,-12.544 l 0.15273,-9.184 2.176,-2.176 2.176,-2.176 h 6.464 c 3.5552,0 6.464,-0.25719 6.464,-0.57153 0,-1.0992 2.19438,-1.43435 2.91738,-0.44557 0.50003,0.68383 0.91215,0.77156 1.38818,0.29554 0.4568,-0.4568 1.06368,-0.47017 1.86573,-0.0411 0.99801,0.53389 1.20351,0.3894 1.281,-0.90071 0.0839,-1.39677 -0.15655,-1.53664 -2.64163,-1.53664 -1.59926,0 -3.0515,-0.38264 -3.49909,-0.92196 -0.42084,-0.50708 -1.22188,-0.74669 -1.78009,-0.53249 -0.87221,0.3347 -0.95619,-0.0392 -0.59715,-2.65864 0.36396,-2.65539 0.23544,-3.19577 -0.99752,-4.19415 -1.0912,-0.88361 -1.25059,-1.34605 -0.69605,-2.0194 0.51334,-0.62334 0.5506,-2.52231 0.13013,-6.63336 -0.41136,-4.022 -0.37465,-6.2794 0.12164,-7.48137 0.39092,-0.94676 0.53808,-2.00077 0.32704,-2.34225 -0.21105,-0.34147 -0.20321,-1.09129 0.0174,-1.66626 0.36877,-0.96099 0.49298,-0.96228 1.53855,-0.0161 0.65852,0.59596 1.29766,0.76999 1.51806,0.41336 0.62323,-1.00841 -0.32366,-4.47736 -1.32727,-4.86248 -0.66089,-0.25361 -0.8267,-0.0313 -0.57297,0.76812 0.22579,0.71141 -0.12134,1.42378 -0.94418,1.93766 -1.73375,1.08275 -2.33471,0.59553 -2.65558,-2.15296 -0.26579,-2.27668 -0.25212,-2.29116 1.7986,-1.90644 1.5985,0.29988 2.11414,0.1518 2.27711,-0.65393 0.15536,-0.76808 1.05096,-1.08278 3.41069,-1.19844 1.76,-0.0863 3.632,-0.29912 4.16,-0.47301 0.528,-0.17388 0.744,-0.19535 0.48,-0.0477 -0.79626,0.4453 -0.50142,2.95962 0.50275,4.28737 0.76648,1.01347 1.09069,1.09155 1.73965,0.41898 0.64083,-0.66417 0.51458,-1.01866 -0.6424,-1.80367 -2.1827,-1.48095 -1.77992,-1.91229 2.24,-2.39874 2.024,-0.24493 4.27958,-0.82904 5.01241,-1.29801 0.73283,-0.46898 1.68745,-0.63326 2.12137,-0.36508 0.88131,0.54468 3.90622,0.12996 3.90622,-0.53555 0,-0.61662 -26.82539,-1.17509 -35.69017,-0.74302 -0.47277,0.023 -0.76969,0.77245 -0.71299,1.79949 0.0534,0.968 -0.2373,2.59004 -0.64613,3.60453 -0.40882,1.0145 -0.57212,2.38391 -0.36289,3.04316 0.24214,0.76287 0.0143,1.33912 -0.62671,1.58509 -2.35039,0.90191 -4.13019,10.48719 -1.94724,10.48719 0.52038,0 0.94615,0.271 0.94615,0.60223 0,0.68306 -1.27992,1.61327 -2.24,1.62797 -0.352,0.005 -0.68494,1.1618 -0.73986,2.5698 l -0.0999,2.56 0.49561,-2.24 c 0.42288,-1.9113 0.5191,-2.00522 0.65568,-0.64 0.22212,2.22008 -0.0116,3.45297 -0.74021,3.90538 -0.37232,0.23116 -0.53243,4.20076 -0.40013,9.92 0.1213,5.24404 0.12228,8.74262 0.002,7.77462 -0.24274,-1.9561 -0.8744,-2.22058 -2.01656,-0.84436 -1.09675,1.32149 -1.02287,4.237 0.17208,6.79042 1.23385,2.63652 3.01351,14.16808 2.14171,13.87748 -0.32926,-0.10975 -1.42501,-3.21095 -2.435,-6.89155 -1.00998,-3.68059 -2.09023,-7.46034 -2.40054,-8.39943 -0.34503,-1.04416 -0.32323,-1.9484 0.0561,-2.32776 0.40044,-0.40044 0.3737,-0.77276 -0.0754,-1.05034 -0.38244,-0.2365 -0.69553,-0.718 -0.69553,-1.07 0,-0.352 0.288,-0.46201 0.64,-0.24446 0.352,0.21755 0.64,0.0783 0.64,-0.30943 0,-0.38773 -2.52,-3.16005 -5.6,-6.16071 -3.08,-3.00066 -5.11664,-5.22042 -4.52585,-4.9328 0.59077,0.28762 3.13658,2.48359 5.65735,4.87994 3.28512,3.12297 4.97481,4.29689 5.96585,4.1448 0.83114,-0.12755 1.29556,-0.58905 1.16433,-1.15699 -0.36787,-1.59201 -0.15553,-17.93992 0.24136,-18.5821 0.20487,-0.33149 0.17499,-0.92227 -0.0664,-1.31286 -0.82494,-1.33478 -1.39935,-21.67104 -0.64652,-22.88915 0.2486,-0.40224 0.0523,-0.7207 -0.4442,-0.7207 -0.4893,0 -1.28499,-0.73873 -1.7682,-1.64163 -0.75302,-1.40702 -0.74561,-1.72573 0.0518,-2.23019 1.20699,-0.76353 2.06672,-0.77119 1.5989,-0.0143 -0.72046,1.16573 2.41353,1.40919 18.04673,1.40199 17.1434,-0.008 24.89021,-0.268 25.47762,-0.85541 0.74876,-0.74876 -4.77876,-1.11744 -16.67283,-1.11205 -14.64878,0.007 -16.19973,-0.0981 -18.18562,-1.2275 -0.8501,-0.48347 -2.79409,-0.85399 -4.32,-0.82336 -2.40361,0.0483 -2.77438,-0.12272 -2.77438,-1.27931 0,-1.117287 0.15741,-1.204377 0.96517,-0.533987 0.61178,0.507727 2.03539,0.680377 3.88817,0.471547 2.13534,-0.24069 3.01471,-0.0905 3.26331,0.55734 0.55835,1.45507 1.9513,1.00627 2.28436,-0.736 0.35589,-1.861657 -1.43218,-3.497167 -3.8234,-3.497167 -0.8404,0 -1.45759,-0.38932 -1.45759,-0.91945 0,-0.56895 -0.79093,-0.9959 -2.07476,-1.12 -1.39755,-0.13509 -2.14659,-0.57951 -2.29482,-1.36155 -0.20304,-1.07119 0.18515,-1.12906 5.01891,-0.74818 4.8424,0.38157 5.33736,0.30721 6.53866,-0.98224 0.96638,-1.03728 1.76421,-1.30214 3.11103,-1.03277 2.69966,0.53993 2.81707,-0.56902 0.275,-2.59735 -1.23969,-0.98915 -2.25399,-2.12765 -2.254,-2.52998 -2e-5,-0.402347 -0.45558,-0.906347 -1.01237,-1.120004 -1.56562,-0.600788 -1.77248,-0.470528 -0.90765,0.571526 0.45923,0.553338 0.52143,0.959998 0.14683,0.959998 -0.79251,0 -1.33553,-1.321784 -0.97121,-2.364043 0.30408,-0.86992 1.9777,-0.389427 3.34107,0.959207 0.79137,0.782828 1.02554,0.75792 1.713,-0.182234 0.81836,-1.119094 3.4503,-0.851958 3.4503,0.350302 0,0.328275 0.32977,0.59687 0.73282,0.59687 0.51619,0 0.62214,-1.320211 0.35841,-4.465971 -0.23306,-2.779949 -0.1256,-4.619744 0.28466,-4.873293 0.38718,-0.239296 0.48469,-1.3368 0.23636,-2.660499 -0.38512,-2.052851 -0.30493,-2.222381 0.90188,-1.906791 1.55367,0.406292 2.42327,-0.612038 1.3981,-1.637209 -0.84322,-0.843219 -0.9727,-5.172755 -0.13929,-4.657683 1.28396,0.793536 1.14976,-1.580551 -0.25515,-4.5136 -0.82326,-1.718727 -1.51955,-2.764954 -1.54732,-2.324954 -0.0278,0.44 -0.62647,0.8 -1.33047,0.8 -0.704,0 -1.28,0.288 -1.28,0.64 0,0.352 -0.648,0.64441 -1.44,0.649798 -2.57378,0.01754 -2.8618,0.708244 -2.87926,6.904884 -0.009,3.275078 -0.19317,6.131078 -0.40876,6.346668 -0.69264,0.69264 -0.41899,1.45865 0.52109,1.45865 0.50219,0 1.0286,-0.504 1.16981,-1.12 0.2714,-1.184006 1.32402,2.02249 2.12033,6.458989 l 0.44137,2.458995 -1.96344,-1.015341 c -1.0799,-0.558432 -2.35108,-1.568755 -2.82485,-2.245165 -0.80283,-1.146195 -0.99045,-0.991097 -2.75885,2.280557 -1.61359,2.985248 -1.75383,3.59296 -0.93744,4.062353 3.12438,1.79643 3.31169,2.14702 2.35836,4.41431 -0.53888,1.28164 -1.0824,1.85654 -1.34835,1.42622 -0.24505,-0.3965 -1.12456,-0.72092 -1.95445,-0.72092 -0.82989,0 -1.62849,-0.35878 -1.77466,-0.79728 -0.14617,-0.43851 -0.67417,-0.81283 -1.17333,-0.83182 -2.88182,-0.10964 -6.29266,-1.34401 -8.12985,-2.94216 -1.4009,-1.218632 -2.80787,-1.828738 -4.21726,-1.828738 -1.63493,0 -2.28048,-0.363174 -2.84402,-1.6 -0.56179,-1.233005 -0.54866,-1.611232 0.0573,-1.648966 0.43246,-0.02694 1.28914,-0.14528 1.90374,-0.262996 0.61461,-0.117721 1.26289,0.02125 1.44064,0.308884 0.39605,0.640812 2.8819,0.05958 2.8819,-0.673792 0,-0.818324 -1.47957,-1.550996 -2.72,-1.346925 -0.86684,0.142605 -1.12,-0.26736 -1.12,-1.813747 0,-1.169024 -0.26553,-1.833888 -0.64,-1.602458 -0.36441,0.225222 -0.64,-0.325946 -0.64,-1.28 0,-0.921549 -0.216,-1.542528 -0.48,-1.379962 -0.264,0.162567 -0.51435,-0.684435 -0.55634,-1.882227 -0.042,-1.197798 0.17401,-2.177811 0.48,-2.177811 0.30599,0 0.55634,0.59888 0.55634,1.330854 0,1.172512 0.24747,1.274176 2.08,0.854535 1.144,-0.261971 2.584,-0.446759 3.2,-0.410624 0.616,0.0361 1.12,-0.204416 1.12,-0.534541 0,-0.330125 -0.36,-0.611494 -0.8,-0.625274 -1.28013,-0.04006 3.37586,-1.89495 4.75661,-1.89495 0.96638,0 1.15576,-0.295814 0.83546,-1.305011 -0.36046,-1.13568 -0.20577,-1.252698 1.19216,-0.901837 1.43282,0.35961 1.5671,0.241312 1.24297,-1.094989 -0.5845,-2.409651 -4.60946,-7.578163 -5.90149,-7.578163 -0.99739,0 -0.83941,0.995718 0.30923,1.948998 1.61103,1.337037 2.26395,3.033511 1.83116,4.757869 -0.22267,0.887226 -0.59851,1.613133 -0.83517,1.613133 -0.4995,0 -2.11564,-3.707424 -2.23191,-5.12 -0.049,-0.594925 -0.87464,-1.036608 -2.17117,-1.161453 -1.15069,-0.110803 -1.93346,-0.458227 -1.73951,-0.772051 0.19396,-0.313824 0.75334,-0.416832 1.24307,-0.228909 1.07282,0.41168 2.51923,-2.021289 2.00239,-3.368162 -0.20062,-0.522805 -0.6188,-0.793552 -0.92929,-0.601661 -0.31048,0.19189 -0.56636,-0.437856 -0.5686,-1.399436 -0.003,-0.96158 0.25313,-1.911415 0.56752,-2.110745 0.31438,-0.199328 0.39478,-1.246512 0.17867,-2.327075 -0.3819,-1.909499 -2.32667,-3.390508 -4.45222,-3.390508 -0.51143,0 -0.92988,-0.320052 -0.92988,-0.711226 0,-0.46562 -0.77021,-0.566736 -2.23035,-0.29281 -1.789,0.335617 -2.16018,0.235546 -1.87573,-0.505708 0.46577,-1.213787 2.53272,-1.727615 3.4121,-0.848226 0.49864,0.498627 0.69398,0.398344 0.69398,-0.356259 0,-1.995466 1.17564,-1.765701 2.57834,0.503905 0.77421,1.252708 1.53267,2.152641 1.68546,1.999852 0.15279,-0.15279 0.96265,0.332208 1.79968,1.077774 1.01707,0.905933 1.32162,1.596866 0.91815,2.083017 -0.6449,0.77707 -0.13969,2.809681 0.69837,2.809681 0.27667,0 0.68137,-0.464675 0.8993,-1.032611 0.25125,-0.654743 0.86157,-0.910927 1.66784,-0.700083 1.57272,0.411278 2.16888,-0.433038 1.36562,-1.934079 -0.33354,-0.623275 -0.81534,-2.526452 -1.07067,-4.229282 -0.45599,-3.041057 -0.44006,-3.080956 0.89683,-2.24605 1.17003,0.730693 1.36108,1.457234 1.36108,5.176055 0,3.491495 0.19248,4.32605 0.99777,4.32605 0.54877,0 0.80764,0.307634 0.57526,0.683631 -0.23238,0.375997 -0.80389,0.537283 -1.27001,0.358412 -0.59517,-0.228386 -0.79383,0.178252 -0.66723,1.365715 0.0992,0.930014 0.55556,1.816026 1.01423,1.968916 0.55071,0.18357 0.69744,-0.07773 0.43204,-0.769346 -0.44217,-1.152276 1.11895,-1.505952 1.79794,-0.407328 0.55399,0.896378 1.78098,0.796751 3.22918,-0.262196 1.2166,-0.889604 1.21608,-0.922174 -0.0377,-2.333504 -0.90636,-1.0203 -1.04176,-1.511662 -0.47148,-1.711137 0.44,-0.153906 0.8,-0.574643 0.8,-0.934969 0,-0.360327 -0.432,-0.489366 -0.96,-0.286753 -1.06599,0.409059 -1.32846,-0.568178 -0.32,-1.191441 0.352,-0.217548 0.64,-1.413507 0.64,-2.657688 0,-1.723902 -0.30456,-2.341788 -1.28,-2.596873 -0.704,-0.184099 -1.28,-0.742176 -1.28,-1.240169 0,-0.497994 -0.41382,-1.064238 -0.91959,-1.258322 -0.50578,-0.194083 -0.76296,-0.761045 -0.57153,-1.259914 0.19144,-0.498868 0.0293,-0.907034 -0.36041,-0.907034 -0.38966,0 -0.70847,0.257533 -0.70847,0.572296 0,0.314764 -0.70006,0.530764 -1.55569,0.48 -2.25433,-0.133746 -2.70557,-2.842181 -0.56311,-3.379904 2.26614,-0.568764 1.69637,-2.829686 -1.0812,-4.290386 -2.15376,-1.132638 -2.16744,-1.161767 -0.35544,-0.756544 1.55723,0.348248 4.58122,1.552573 6.91544,2.754123 0.264,0.135895 0.48,-0.784918 0.48,-2.046252 0,-1.679711 0.27518,-2.293333 1.02847,-2.293333 0.57296,0 0.88917,-0.363005 0.71396,-0.81961 -0.17299,-0.450785 0.35927,-1.137585 1.18278,-1.526222 1.00735,-0.475389 1.56908,-0.491298 1.71664,-0.04861 0.14753,0.442596 0.64862,0.42825 1.53069,-0.04382 0.9631,-0.515434 1.50737,-0.505814 2.04941,0.03622 0.42667,0.426667 0.73805,0.468032 0.73805,0.09805 0,-0.352 -0.3456,-0.9856 -0.768,-1.408 -0.51381,-0.513806 -0.53647,-0.768 -0.0685,-0.768 0.77463,0 1.54441,1.477888 1.91677,3.68 0.25985,1.536716 -0.39416,1.870135 -1.49972,0.764572 -0.37149,-0.371485 -1.40838,-0.491468 -2.30422,-0.266629 -1.27126,0.319068 -1.68481,0.888763 -1.88405,2.595427 -0.14041,1.202647 -0.0971,2.182219 0.0962,2.176829 0.97932,-0.0273 2.06139,-1.214592 1.67571,-1.838646 -1.08385,-1.753708 1.28887,-0.465161 3.40372,1.848447 2.74853,3.006853 3.75681,3.222561 3.73942,0.8 -0.007,-0.968 -0.13817,-1.402301 -0.29163,-0.965114 -0.20774,0.591882 -0.60626,0.619736 -1.56046,0.109066 -1.21668,-0.651146 -1.22578,-0.747355 -0.18004,-1.902882 0.85396,-0.943618 0.9346,-1.418073 0.3589,-2.111743 -0.59678,-0.719071 -0.43006,-0.954412 0.84935,-1.198987 0.87552,-0.167367 1.67391,-0.07658 1.77419,0.201757 0.22176,0.615513 4.98233,-0.806924 4.98233,-1.488702 3e-5,-0.265874 0.40323,-0.483403 0.89603,-0.483403 0.59923,0 0.896,-0.750274 0.896,-2.265249 0,-1.620722 -0.20942,-2.098254 -0.736,-1.678329 -0.4048,0.322806 -1.36078,0.778204 -2.12439,1.011995 -1.0861,0.332527 -1.48495,0.105734 -1.8319,-1.041671 -0.52813,-1.746576 -3.43435,-4.986746 -4.47278,-4.986746 -0.40348,0 -0.7336,-0.897689 -0.7336,-1.994865 0,-1.196433 -0.42693,-2.233785 -1.06667,-2.591802 -1.18885,-0.665314 -1.39222,-2.9032793 -0.39742,-4.3733333 0.49495,-0.731411 0.56423,-0.579018 0.29097,0.64 -0.28532,1.272777 -0.0275,1.751297 1.26056,2.3397863 0.89057,0.406882 1.61923,0.493863 1.61923,0.193292 0,-0.3005713 0.85558,-0.2482343 1.9013,0.116305 1.77958,0.620364 2.25479,1.678008 1.12958,2.514021 -0.54911,0.407977 0.81091,3.30254 2.67857,5.700887 l 1.23373,1.584291 0.42866,-1.707916 c 0.23576,-0.939354 0.24055,-2.012285 0.0106,-2.384292 -0.22987,-0.372005 -0.096,-0.676374 0.29756,-0.676374 0.39354,0 0.53031,-0.299715 0.30391,-0.666033 -0.2264,-0.366319 -0.9634,-0.490911 -1.63778,-0.276873 -0.67437,0.214039 -1.24817,0.153755 -1.2751,-0.133966 -0.0269,-0.287721 -0.14253,-1.007216 -0.25688,-1.598878 -0.11435,-0.591662 0.20235,-1.233181 0.70378,-1.425597 0.7511,-0.288223 0.77994,-0.09874 0.16375,1.07575 -0.71548,1.363728 -0.69528,1.37911 0.46519,0.354449 1.06178,-0.937516 1.36811,-0.957477 2.45545,-0.16 1.53387,1.12498 3.95933,1.186883 4.35492,0.111148 0.44055,-1.197959 -0.14574,-2.4 -1.17058,-2.4 -0.49866,0 -0.90666,-0.2981333 -0.90666,-0.6625183 0,-0.436317 0.38803,-0.454845 1.13652,-0.05426 0.73688,0.394363 1.56068,0.37088 2.34274,-0.06678 1.00049,-0.5599 1.13411,-0.496067 0.78347,0.374267 -1.39863,3.4716043 -1.39566,3.3606913 -0.0626,2.3403273 1.16785,-0.893875 1.16551,-0.862105 -0.0402,0.547193 -1.46056,1.707221 -1.41115,2.005214 0.52207,3.148476 1.38886,0.821332 1.38906,0.824319 0.0315,0.460213 -1.8842,-0.50535 -4.71351,2.885028 -4.71351,5.648242 0,2.041035 1.9513,4.07658 3.17995,3.317234 0.31234,-0.193036 0.75336,0.233389 0.98005,0.947612 0.22668,0.714223 0.6988,1.121427 1.04915,0.904899 0.35035,-0.216528 0.79947,0.227579 0.99803,0.986904 0.21726,0.830813 0.70983,1.246745 1.23692,1.04448 1.19867,-0.459971 2.87713,0.254506 2.4024,1.022637 -0.21238,0.343637 -1.07473,0.451972 -1.91632,0.240744 -1.41507,-0.355159 -1.5362,-0.190549 -1.61018,2.188143 -0.10492,3.373188 -0.15364,3.659168 -0.72,4.225526 -0.264,0.264 -0.48,-1.409187 -0.48,-3.718194 0,-3.187261 -0.23701,-4.28914 -0.98423,-4.575876 -0.56004,-0.214909 -1.14121,0.03141 -1.34847,0.571527 -0.20034,0.522065 -0.79903,0.94921 -1.33042,0.94921 -0.65092,0 -0.85701,0.417443 -0.63161,1.279363 0.18401,0.703649 0.0736,1.440646 -0.24536,1.63777 -1.00649,0.622045 -0.62813,2.200692 0.54009,2.253393 0.616,0.02779 0.77617,0.190397 0.35595,0.361349 -1.27489,0.518636 -0.2237,2.035546 1.15987,1.673737 1.66334,-0.434975 3.73719,1.78765 3.85133,4.127628 0.0736,1.509279 0.13023,1.563131 0.36451,0.34676 0.15528,-0.806182 0.75074,-1.444314 1.35285,-1.4498 0.83332,-0.0076 0.88327,-0.131647 0.22182,-0.550935 -0.68731,-0.435692 -0.65614,-0.616931 0.16,-0.930114 0.55752,-0.213938 1.01366,-1.10102 1.01366,-1.971294 0,-0.870274 0.23803,-1.72942 0.52894,-1.909214 0.93839,-0.579957 3.31106,0.371729 3.31106,1.328076 0,0.510086 0.30178,1.491296 0.67061,2.180466 0.60071,1.122439 0.77224,1.151405 1.64571,0.277925 1.43544,-1.435438 1.95709,-1.20811 2.40864,1.049665 0.40147,2.007346 -0.86988,5.015225 -2.11979,5.015225 -0.31093,0 -0.41466,0.576175 -0.2305,1.280389 0.30739,1.175468 0.52448,1.096177 2.64927,-0.967624 2.02737,-1.969182 2.21656,-2.404755 1.52526,-3.511705 -0.43406,-0.695031 -0.7892,-1.719211 -0.7892,-2.275956 0,-0.844154 0.31887,-0.785215 1.92,0.354896 1.056,0.751939 1.92,1.74071 1.92,2.197271 0,0.45656 0.616,1.613226 1.36889,2.570368 1.05146,1.336709 1.49442,1.542236 1.9102,0.886309 0.37158,-0.586177 0.54439,-0.302068 0.55112,0.906052 0.007,1.174821 0.34672,1.76 1.023131,1.76 1.52705,0 0.71212,1.512676 -1.037441,1.92569 -1.68886,0.398685 -2.72539,3.004844 -1.7159,4.31431 0.44279,0.574364 0.27874,0.802764 -0.58163,0.8098 -0.91907,0.0075 -0.9954,0.138395 -0.32752,0.561557 0.47897,0.303466 1.41497,0.409466 2.08,0.235556 1.669541,-0.436596 1.524471,0.66713 -0.18944,1.441324 -2.04205,0.922413 -2.22221,2.231763 -0.30708,2.231763 2.470151,0 3.625671,-0.655558 3.625671,-2.056947 0,-0.883765 0.29718,-1.159744 0.96,-0.891526 0.528,0.21366 1.35484,0.549023 1.83742,0.745254 0.48257,0.19623 1.05676,-0.110605 1.27597,-0.68185 0.32076,-0.835885 0.11923,-0.949975 -1.03239,-0.584464 -1.20603,0.382778 -1.30863,0.306775 -0.65275,-0.483519 0.82141,-0.989728 0.83083,-5.003505 0.0118,-5.005676 -0.92808,-0.0024 -0.46578,-0.982253 0.85167,-1.805017 1.1664,-0.728426 1.5074,-0.642046 2.74741,0.695958 1.11445,1.202501 1.36932,2.129903 1.19759,4.357695 l -0.21817,2.830092 0.98119,-1.92 c 0.53966,-1.056 1.7194,-3.648 2.62165,-5.76 1.53581,-3.59506 1.61595,-3.676707 1.25651,-1.28 -0.50234,3.349462 -0.59045,3.706618 -1.12549,4.562077 -0.75052,1.199998 3.29472,1.68224 4.44685,0.530118 1.12389,-1.123892 2.51125,-0.345439 3.43179,1.925585 0.41372,1.020685 0.53661,1.070226 0.5684,0.229147 0.0223,-0.59019 0.54457,-1.173587 1.16057,-1.29644 1.00553,-0.200537 0.97856,-0.345786 -0.2638,-1.421041 -0.76109,-0.65872 -1.24717,-1.553703 -1.08019,-1.98885 0.16698,-0.435148 -0.14631,-1.867969 -0.6962,-3.184046 -1.6568,-3.96529 -1.07923,-4.738397 0.71462,-0.95655 l 1.66964,3.52 0.58315,-1.92 c 0.98731,-3.250733 1.27181,-7.21089 0.5501,-7.65694 -0.37253,-0.230231 -0.67732,-0.753687 -0.67732,-1.163235 0,-0.409548 0.44834,-0.104551 0.99629,0.677771 1.31323,1.874908 1.9112,1.795057 3.22605,-0.430792 0.82812,-1.401907 1.28252,-1.67775 1.86596,-1.132736 0.59476,0.555588 0.38914,1.199359 -0.89853,2.813176 -0.91838,1.150995 -2.02978,2.092727 -2.46978,2.092737 -0.95067,2.3e-5 -1.07911,2.311974 -0.16,2.880019 0.352,0.217548 0.64,0.05695 0.64,-0.356873 0,-0.461477 0.54768,-0.609193 1.4164,-0.382019 0.85365,0.223234 1.866,-0.03649 2.548,-0.653683 0.92156,-0.833996 1.31201,-0.874347 2.1036,-0.217388 0.66623,0.552922 0.972,0.580709 0.972,0.08833 0,-0.873355 0.64087,-0.902263 1.92,-0.08661 0.81494,0.519655 0.74241,0.765433 -0.48,1.626491 -0.98614,0.694636 -1.43691,1.658469 -1.4302,3.058043 0.005,1.12404 0.22206,1.710143 0.48147,1.30245 0.25941,-0.407692 1.55101,-0.943744 2.8702,-1.191225 2.35555,-0.441904 3.12056,-1.240173 1.65627,-1.728271 -0.5457,-0.181901 -0.55762,-0.577358 -0.045,-1.493333 0.65639,-1.172883 0.73741,-1.140308 1.38226,0.555752 0.37676,0.990915 0.67407,1.998915 0.66072,2.24 -0.031,0.560567 -4.92184,3.958336 -5.69766,3.958336 -0.32168,0 -1.47671,1.08 -2.56675,2.4 l -1.98187,2.4 6.57528,0.525472 c 3.61641,0.289011 7.36729,0.516608 8.33529,0.505766 1.12521,-0.01261 1.76,0.317248 1.76,0.914528 0,0.513831 0.288,0.934234 0.64,0.934234 0.352,0 0.64,-0.576 0.64,-1.28 0,-1.59625 2.35762,-4.040615 3.32222,-3.444458 0.40951,0.253089 0.53796,0.154893 0.30034,-0.229594 -0.22837,-0.369503 0.0151,-0.836962 0.54111,-1.038799 1.24107,-0.476249 1.23843,-1.687149 -0.004,-1.687149 -0.528,0 -0.96,-0.264 -0.96,-0.586667 0,-0.995133 1.54228,-1.162484 2.44,-0.264761 0.46829,0.468285 1.83886,0.851428 3.04572,0.851428 1.20685,0 2.19428,0.256 2.19428,0.568889 0,0.312889 0.50386,0.528889 1.1197,0.48 1.31013,-0.104008 1.93496,2.552456 0.85448,3.632929 -0.49891,0.498912 -0.69418,0.323084 -0.69418,-0.625068 0,-1.064163 -0.3112,-1.25976 -1.60946,-1.011583 -0.8852,0.169218 -1.77484,0.575264 -1.97698,0.902327 -0.21491,0.34775 -0.74246,0.283483 -1.27054,-0.154781 -0.64923,-0.538813 -0.90302,-0.547547 -0.90302,-0.03108 0,0.395101 0.25442,0.718365 0.56536,0.718365 0.68486,0 1.67823,2.764646 1.89716,5.28 0.0536,0.616 0.40248,1.12 0.77526,1.12 0.37277,0 0.49977,-0.288 0.28222,-0.64 -0.21755,-0.352 0.0294,-0.64 0.5489,-0.64 0.51944,0 1.08145,0.36 1.24892,0.8 0.18896,0.496474 1.07809,-0.112211 2.34349,-1.604326 2.94976,-3.478253 4.37251,-4.11145 5.08633,-2.263687 l 0.56711,1.468013 0.63853,-1.6 c 0.58361,-1.462413 0.68023,-1.496403 1.12362,-0.395219 0.27981,0.694899 0.15128,1.739328 -0.3037,2.467859 -0.66538,1.06544 -0.57646,1.489126 0.56822,2.707571 0.74636,0.794471 1.29662,1.69993 1.22281,2.012141 -0.0738,0.312205 0.0892,1.363386 0.36226,2.335962 0.31607,1.125804 0.21792,2.10391 -0.27012,2.691961 -1.07449,1.294682 -0.40462,2.044435 2.27588,2.547303 2.04654,0.383929 2.26275,0.606489 1.91915,1.9755 -0.2886,1.149863 -0.16173,1.456295 0.4981,1.203092 0.48693,-0.186855 1.05135,0.09293 1.25428,0.62174 0.20292,0.528807 1.39209,1.153408 2.64258,1.388007 1.25051,0.234592 2.27364,0.651673 2.27364,0.926835 0,0.924314 -1.74599,1.181696 -4.22438,0.622726 -1.35282,-0.305107 -2.60343,-0.411001 -2.77911,-0.235315 -0.46882,0.468813 1.3807,1.508666 2.70357,1.520039 0.62706,0.0051 1.29675,0.418035 1.48822,0.916998 0.29886,0.778829 0.64954,0.781261 2.47826,0.01715 1.17157,-0.489517 3.1021,-0.853491 4.29006,-0.808832 1.18795,0.04467 2.77091,-0.245792 3.51767,-0.645446 1.09849,-0.587892 1.43148,-0.534541 1.74381,0.279385 0.21233,0.553319 0.19816,1.310042 -0.0315,1.681619 -0.27067,0.437946 0.12444,0.539559 1.12324,0.288871 0.84743,-0.212691 1.97039,-0.115104 2.49546,0.216864 0.52508,0.331961 0.66668,0.628217 0.31468,0.658349 -0.352,0.03014 -0.064,0.302297 0.64,0.604819 1.09455,0.470336 1.11773,0.55655 0.16,0.595014 -0.616,0.02477 -1.12,0.476991 -1.12,1.004991 0,0.53333 -0.56888,0.96 -1.28,0.96 -0.704,0 -1.28,-0.42333 -1.28,-0.94072 0,-0.70648 -0.59342,-0.538 -2.38331,0.67665 -3.29288,2.23461 -3.37876,2.43475 -0.81669,1.90313 1.232,-0.25563 5.26091,-0.69937 8.95312,-0.98609 6.51266,-0.50573 6.75757,-0.47683 8.20217,0.96777 1.40034,1.40034 1.41982,1.52474 0.3269,2.08768 -0.6392,0.32924 -1.52203,0.46958 -1.96185,0.31187 -1.16292,-0.41699 -1.79997,1.74793 -0.7336,2.49302 0.70248,0.49083 0.7189,0.69462 0.0769,0.9542 -0.51554,0.20844 0.83322,2.00603 3.66,4.87795 2.46201,2.501327 4.31978,4.704477 4.12838,4.895867 -0.19139,0.1914 -0.62298,-0.14338 -0.95908,-0.74395 -1.10658,-1.97734 -7.86477,-6.677157 -11.59752,-8.065197 -2.01553,-0.74949 -5.58059,-1.66879 -7.92235,-2.04289 -4.06095,-0.64873 -4.47375,-0.59025 -8.9309,1.26526 -2.57023,1.06999 -5.39684,1.94544 -6.28135,1.94544 -0.92912,0 -2.02269,0.59175 -2.58978,1.40139 -1.18204,1.68762 -2.2476,0.98089 -1.15614,-0.76682 0.63604,-1.01846 0.60471,-1.16516 -0.18423,-0.86242 -0.52285,0.20064 -0.95063,0.61647 -0.95063,0.92408 0,0.3076 -1.25803,0.38685 -2.79562,0.1761 -4.65423,-0.63793 -4.71137,2.37742 -0.0616,3.249727 1.32286,0.24816 2.2172,0.79148 2.2172,1.34694 0,1.1286 3.29432,1.26807 5.24854,0.22221 1.07983,-0.57791 1.16069,-0.82542 0.43792,-1.34037 -0.69524,-0.49534 -0.64982,-0.55577 0.21054,-0.28012 0.72983,0.23382 1.54414,-0.27648 2.43288,-1.524597 2.43731,-3.42288 10.49262,-4.80062 16.82847,-2.87826 7.42677,2.25336 15.19977,8.788507 18.30137,15.386867 1.88291,4.00573 3.45179,11.47863 3.05366,14.54527 -0.29674,2.28565 0.37688,3.29979 1.06276,1.6 0.20939,-0.51892 0.34055,-0.44169 0.37333,0.21981 0.0488,0.98496 -1.90821,7.23906 -3.08542,9.86019 -0.31618,0.704 -0.9451,2.288 -1.3976,3.52 -1.95068,5.31109 -9.42371,13.45882 -18.18645,19.82844 -3.52664,2.5635 -12.05865,10.41541 -16.35527,15.05156 -2.49618,2.69344 -5.74227,7.59905 -8.24843,12.46533 -2.78111,5.40017 -5.76874,10.13792 -5.78414,9.17244 -0.007,-0.41922 0.27584,-0.94022 0.62784,-1.15777 0.352,-0.21755 0.64,-0.70181 0.64,-1.07613 0,-0.44585 -0.31382,-0.42015 -0.90985,0.0745 -1.51643,1.25852 -3.47395,-0.47249 -3.91412,-3.46121 -0.20876,-1.41744 -0.32992,-7.47317 -0.26925,-13.45717 0.0607,-5.984 -0.16462,-12.752 -0.50064,-15.04 l -0.61096,-4.16 -0.0976,4.32 c -0.0569,2.51839 0.16931,4.32 0.54241,4.32 0.352,0 0.63559,0.792 0.6302,1.76 -0.007,1.20495 -0.18013,1.49132 -0.54989,0.90803 -0.86068,-1.35768 -1.42552,3.76649 -0.96335,8.73929 0.2245,2.4155 0.19511,8.37001 -0.0653,13.23225 -0.67813,12.66105 0.62027,11.84045 -18.73457,11.84045 -11.18915,0 -15.47026,0.20918 -16.04506,0.78397 -0.61863,0.61863 -1.04872,0.61863 -2.03931,0 -1.25829,-0.78582 -16.63271,-1.1758 -16.63271,-0.4219 0,0.69654 1.47777,3.16192 2.16119,3.60555 0.37927,0.2462 1.20192,-0.0161 1.82812,-0.58274 0.6262,-0.5667 1.29294,-0.87596 1.48165,-0.68726 0.66356,0.66356 -3.6141,3.65622 -5.81681,4.06946 -2.80731,0.52665 -4.13415,-0.49955 -4.13415,-3.19744 0,-2.57366 -0.99591,-3.56964 -3.569381,-3.56964 -2.02238,0 -2.03168,0.0151 -1.71817,2.7966 0.20888,1.85316 0.0438,2.96434 -0.48932,3.29383 -0.94364,0.5832 -8.10728,0.96128 -9.76262,0.51525 z m 5.93949,-5.96565 c 0,-0.352 -0.30499,-0.64 -0.67777,-0.64 -0.37277,0 -0.49977,0.288 -0.28223,0.64 0.21755,0.352 0.52255,0.64 0.67778,0.64 0.15522,0 0.28222,-0.288 0.28222,-0.64 z m 76.128271,-13.91327 c 1.16853,-3.2315 5.53583,-10.44053 8.49271,-14.01876 1.32712,-1.606 2.26562,-3.1584 2.08554,-3.44977 -0.18007,-0.29136 0.01,-0.73816 0.42192,-0.99286 0.50963,-0.31497 0.58014,-0.17557 0.22042,0.43577 -0.29089,0.49439 0.0898,0.3564 0.84602,-0.30665 0.75622,-0.66304 1.22072,-1.45504 1.03225,-1.76 -0.18848,-0.30495 -0.0713,-0.55446 0.26045,-0.55446 0.33171,0 0.76353,-0.61341 0.95959,-1.36312 0.23445,-0.89654 0.69111,-1.23471 1.33415,-0.98795 0.53772,0.20634 1.1754,0.0552 1.41706,-0.33577 0.26607,-0.4305 0.14792,-0.5308 -0.2995,-0.25427 -0.40639,0.25116 -0.73889,0.17579 -0.73889,-0.16748 0,-0.34326 0.864,-1.00657 1.92,-1.474 1.056,-0.46743 1.92,-1.03398 1.92,-1.259 0,-0.22501 0.57253,-0.55885 1.2723,-0.74183 0.69976,-0.183 1.56776,-1.10986 1.92889,-2.05971 0.44543,-1.17156 0.97318,-1.6055 1.64095,-1.34926 0.54139,0.20775 0.82073,0.11301 0.62077,-0.21053 -0.19996,-0.32355 1.15308,-1.83225 3.00676,-3.35268 8.91313,-7.3107 16.92218,-17.19537 16.15459,-19.93777 -0.30711,-1.09725 -0.24784,-1.18629 0.28402,-0.42663 0.75672,1.08083 0.65975,1.48894 0.98837,-4.16 l 0.18615,-3.2 -1.86917,3.84 c -1.02804,2.112 -1.74221,4.33416 -1.58704,4.93812 0.15518,0.60397 0.0747,1.03597 -0.17884,0.96 -0.25353,-0.076 -2.01371,1.73388 -3.9115,4.02188 -4.1504,5.00376 -3.98063,4.8332 -7.97625,8.01321 -1.76,1.40074 -3.344,2.69079 -3.52,2.86679 -1.48502,1.48502 -6.39336,5.09395 -6.36893,4.68285 0.0171,-0.28757 1.63891,-1.81885 3.60403,-3.40285 1.96513,-1.584 4.61514,-3.99633 5.88893,-5.36074 1.27378,-1.36441 3.67433,-3.87602 5.33455,-5.58135 4.05782,-4.1681 5.88667,-7.08092 7.80375,-12.42911 1.75978,-4.90934 2.23687,-11.03121 1.08721,-13.95046 -0.39025,-0.99092 -0.70954,-2.39842 -0.70954,-3.12779 0,-1.43251 -4.56265,-8.58325 -7.48205,-11.72613 -0.98887,-1.06457 -2.98487,-2.45959 -4.43555,-3.10004 l -2.63761,-1.164467 -2.78007,1.754987 c -2.52069,1.59124 -2.65612,1.80084 -1.45143,2.24649 1.50288,0.55595 2.27764,2.07273 1.75475,3.43535 -0.22264,0.58019 0.37211,1.29108 1.62009,1.93644 2.16549,1.11981 2.41193,1.74487 1.11298,2.8229 -1.02463,0.85037 -1.70111,0.32116 -1.70111,-1.3308 0,-0.66077 -0.36,-1.12488 -0.8,-1.03135 -1.47087,0.31262 -7.17729,-1.56673 -9.13004,-3.0069 -1.77075,-1.30593 -2.23432,-1.36826 -5.61666,-0.75519 -3.55239,0.64389 -4.62196,1.83796 -2.00026,2.23308 3.15956,0.47618 4.10696,0.86658 4.10696,1.69238 0,0.4911 1.44798,1.78386 3.21774,2.87281 1.76976,1.08894 3.47536,2.62564 3.79023,3.41489 0.31487,0.78925 1.31489,2.21443 2.22226,3.16707 0.90737,0.95263 1.64977,1.988 1.64977,2.30081 0,0.3128 0.576,1.09001 1.28,1.72712 0.704,0.63711 1.28,1.52875 1.28,1.98142 0,1.6256 -1.37406,1.62399 -2.88225,-0.003 -0.84515,-0.91192 -1.85527,-1.65805 -2.24472,-1.65805 -0.38944,0 -1.84111,-0.91052 -3.22592,-2.02338 -2.45063,-1.96939 -2.55212,-1.99236 -3.80247,-0.86082 -1.70233,1.54059 -1.63021,2.88264 0.15536,2.89071 1.07116,0.005 1.7151,0.66149 2.51402,2.56362 0.61449,1.46304 1.69965,2.78854 2.53629,3.09803 l 1.46227,0.54093 -1.34908,0.722 c -1.48882,0.79679 -1.78871,0.55968 -3.42998,-2.71191 -0.51344,-1.02345 -1.36552,-1.97676 -1.89352,-2.11847 -0.528,-0.14171 -2.09035,-1.82434 -3.4719,-3.73918 -1.67662,-2.32398 -2.96146,-3.4817 -3.86381,-3.4817 -0.92056,0 -1.38466,-0.43491 -1.45457,-1.36307 -0.24698,-3.27868 -5.24389,-5.81024 -5.66771,-2.8714 -0.19177,1.32977 2.1429,4.87062 3.21835,4.88107 0.64488,0.006 5.04823,5.7988 8.40896,11.06182 1.64429,2.57502 1.90753,3.30767 0.9832,2.7364 -0.31212,-0.1929 -0.86211,0.006 -1.2222,0.44223 -0.45845,0.55524 -0.19072,2.21419 0.89311,5.53399 1.544,4.72929 1.66346,6.52775 0.25934,3.90414 -0.40751,-0.76146 -1.12622,-1.23661 -1.59712,-1.05591 -1.24603,0.47815 -5.14857,-1.68873 -6.88944,-3.82534 -3.33383,-4.09169 -7.51621,-10.45545 -7.51621,-11.43638 0,-0.5737 -0.25526,-0.88533 -0.56725,-0.69251 -0.31199,0.19282 -0.77544,8.05782 -1.02988,17.47777 -0.25445,9.41995 -0.55587,19.43119 -0.66983,22.24719 -0.77991,19.27156 0.0212,35.02899 1.27199,25.01832 0.2445,-1.95698 0.7124,-3.72368 1.03977,-3.926 0.32736,-0.20232 0.5952,-0.89455 0.5952,-1.53827 0,-2.24378 7.88261,-12.47555 11.99592,-15.57094 1.48784,-1.11964 1.41332,-0.93621 -0.47592,1.17139 -1.232,1.3744 -2.39376,2.64889 -2.5817,2.83221 -1.34465,1.31157 -5.12442,6.45876 -5.9786,8.14151 -0.57183,1.12652 -1.0397,3.17934 -1.0397,4.56184 0,1.38249 -0.432,3.54754 -0.96,4.81123 -1.07534,2.57364 -1.20488,3.61871 -0.44857,3.61871 0.28129,0 0.90087,-1.07697 1.37685,-2.39327 z m 0.67172,-8.3017 c 0,-0.36756 0.504,-1.06356 1.12,-1.54667 1.03601,-0.81248 1.04959,-0.78237 0.1811,0.40164 -0.51639,0.704 -1.02039,1.4 -1.12,1.54667 -0.0996,0.14666 -0.1811,-0.0341 -0.1811,-0.40164 z m 11.81368,-38.62761 c -0.23201,-0.37542 -0.26817,-0.83626 -0.0803,-1.02409 0.45845,-0.45844 1.70667,0.34933 1.70667,1.10444 0,0.8179 -1.1049,0.76331 -1.62632,-0.0804 z m 14.74632,-22.35744 c -0.21755,-0.352 -0.0906,-0.64 0.28223,-0.64 0.37277,0 0.67777,0.288 0.67777,0.64 0,0.352 -0.127,0.64 -0.28223,0.64 -0.15522,0 -0.46022,-0.288 -0.67777,-0.64 z m -177.599981,49.28 c 0,-0.352 -0.40119,-0.64 -0.89153,-0.64 -0.49034,0 -1.07312,-0.47322 -1.29507,-1.0516 -0.22194,-0.57838 -0.58699,-0.86815 -0.81121,-0.64393 -0.45867,0.45867 1.6196,2.97553 2.457,2.97553 0.29744,0 0.54081,-0.288 0.54081,-0.64 z m 144.051551,-16.0876 c -0.3043,-1.35436 -0.32865,-2.32364 -0.0541,-2.15397 0.74013,0.45742 1.25218,-4.25109 1.28746,-11.83843 0.0172,-3.696 0.26854,-9.168 0.55859,-12.16 0.29004,-2.992 0.31541,-5.84834 0.0564,-6.34742 -0.53101,-1.02306 -1.08016,1.31794 -1.18873,5.06742 -0.10798,3.72928 -0.74238,7.25416 -1.67021,9.28 -0.48364,1.056 -1.03267,2.424 -1.22006,3.04 -0.72911,2.39683 -1.54939,0.91572 -1.94948,-3.52 -0.62495,-6.92886 -0.93735,-8.14057 -1.99423,-7.73501 -1.2057,0.46268 -1.17891,-1.04648 0.0497,-2.80057 0.61403,-0.87664 0.73017,-1.52668 0.31827,-1.78125 -0.42348,-0.26172 -0.43476,-0.80041 -0.0325,-1.55203 0.33885,-0.63316 0.44594,-2.19968 0.23799,-3.48116 -0.35235,-2.17118 -0.26655,-2.32998 1.25869,-2.32998 1.04686,0 1.71757,0.40369 1.86086,1.12 0.12323,0.616 0.21634,-0.608 0.20693,-2.72 -0.0106,-2.36547 0.39412,-4.63871 1.05383,-5.92 l 1.07095,-2.08 -2.35095,-0.1141 c -1.29302,-0.0628 -2.92695,-0.092 -3.63095,-0.065 -0.704,0.027 -5.456,0.21755 -10.56,0.42345 -5.104,0.20592 -11.872,0.38558 -15.04,0.39927 -4.83872,0.0209 -6.01591,0.2349 -7.35999,1.33794 -1.07419,0.88155 -1.33709,1.4202 -0.8,1.6391 0.44,0.17933 0.8,0.86901 0.8,1.53263 0,0.84278 0.30856,1.08817 1.02338,0.81387 0.88797,-0.34075 0.91336,-0.21657 0.19189,0.93869 -0.4573,0.73227 -1.11076,1.15878 -1.45212,0.9478 -0.35592,-0.21997 -0.4497,0.0619 -0.21986,0.66091 0.22044,0.57447 0.0809,1.24221 -0.31012,1.48387 -0.45613,0.2819 -0.52888,0.1448 -0.20296,-0.38253 0.33836,-0.5475 0.21111,-0.72403 -0.38112,-0.52876 -0.489,0.16124 -0.97231,0.8466 -1.07401,1.52303 -0.21154,1.4068 -2.82032,2.82525 -5.22267,2.83967 -1.22402,0.007 -1.40331,0.15478 -0.71669,0.58929 0.67013,0.42407 0.24099,0.6939 -1.6,1.00608 -4.65129,0.78873 -4.899,0.93681 -4.4643,2.66879 0.26597,1.05971 0.16838,1.45021 -0.29142,1.16604 -0.45838,-0.2833 -0.5588,0.10068 -0.29804,1.13964 0.27049,1.07768 0.0917,1.68257 -0.57248,1.93747 -0.53116,0.20382 -1.2973,0.99011 -1.70254,1.7473 -0.66277,1.2384 -0.60267,1.33414 0.59813,0.95302 1.44465,-0.45851 1.7652,0.2563 0.62585,1.39565 -0.51877,0.51877 -0.50165,1.33758 0.0638,3.05088 0.86739,2.62821 0.51613,3.47672 -0.93924,2.26888 -0.80578,-0.66874 -0.97547,-0.62895 -0.97547,0.2288 0,1.20618 -1.25594,1.43145 -1.32896,0.23836 -0.0269,-0.44 -0.14528,-1.30285 -0.263,-1.91746 -0.11772,-0.6146 0.0454,-1.27782 0.36259,-1.47383 0.31715,-0.19601 0.2195,-0.74292 -0.217,-1.21537 -0.43649,-0.47244 -1.00963,-0.72822 -1.27363,-0.56839 -0.264,0.15982 -0.48,-0.14141 -0.48,-0.66941 0,-0.528 0.288,-1.13799 0.64,-1.35554 1.10997,-0.686 0.69808,-1.43968 -0.96,-1.75664 -1.731331,-0.33096 -1.675921,-0.48502 -1.897961,5.27664 -0.0611,1.584 -0.20089,3.888 -0.31077,5.12 l -0.19977,2.24 -0.47152,-2.24 -0.4715,-2.24 -0.0843,2.67687 c -0.0691,2.19723 0.15643,2.75326 1.25894,3.10318 0.738751,0.23447 1.890751,0.97388 2.560001,1.64313 1.19575,1.19576 1.19532,1.21682 -0.0254,1.21682 -0.68323,0 -1.42023,0.288 -1.63778,0.64 -0.217541,0.352 -0.0186,0.64441 0.44223,0.6498 0.60876,0.007 0.57536,0.17939 -0.12223,0.6302 -0.528001,0.34122 -1.176001,0.62481 -1.440001,0.6302 -0.73178,0.0149 -0.57195,-2.84224 0.2023,-3.6165 0.48306,-0.48306 0.2885,-0.78527 -0.6663,-1.03495 -1.10039,-0.28777 -1.27737,-0.12831 -0.96166,0.86641 0.33885,1.06761 0.14331,1.17037 -1.57371,0.82697 -2.57188,-0.51438 -2.59749,0.74501 -0.0447,2.19764 1.05377,0.59963 1.91777,1.30623 1.92,1.57023 0.002,0.264 1.60504,0.48 3.561821,0.48 1.95677,0 3.39842,-0.25782 3.20367,-0.57294 -0.19475,-0.31511 0.10832,-0.75038 0.67349,-0.96726 0.73419,-0.28173 0.9216,-0.11815 0.65641,0.57294 -0.32582,0.84905 1.85544,0.96726 17.84874,0.96726 12.20744,0 18.2199,-0.22003 18.2199,-0.66676 0,-0.36672 0.61154,-1.30272 1.35899,-2.08 l 1.35898,-1.41324 -0.74858,1.45323 c -0.41172,0.79927 -0.57426,1.73527 -0.36121,2.08 0.21305,0.34472 2.84593,0.62677 5.85084,0.62677 6.57258,0 8.66138,0.96636 9.84574,4.55503 0.44336,1.3434 1.05117,2.29109 1.35068,2.10599 0.29951,-0.18511 0.57611,1.04843 0.61469,2.74121 l 0.0701,3.07777 0.5523,-2.81256 c 0.31006,-1.57897 0.30963,-3.8926 -0.001,-5.27504 z m -50.77156,-5.45626 c 0.44,-0.17754 1.16,-0.17754 1.6,0 0.44,0.17754 0.08,0.32281 -0.8,0.32281 -0.88,0 -1.24,-0.14527 -0.8,-0.32281 z m 35.58113,-4.69614 c -0.55183,-2.06744 -0.5157,-2.56 0.18778,-2.56 0.5896,0 0.87108,0.82725 0.87108,2.56 0,1.408 -0.0845,2.56 -0.18778,2.56 -0.10328,0 -0.49526,-1.152 -0.87108,-2.56 z m 11.72553,0.85333 c -0.23467,-0.23466 -0.42667,-0.72426 -0.42667,-1.088 0,-0.40102 0.2981,-0.36324 0.75733,0.096 0.41654,0.41654 0.60854,0.90614 0.42667,1.088 -0.18187,0.18187 -0.52267,0.13867 -0.75733,-0.096 z m 2.82386,-2.50666 c 0.0307,-0.74557 0.18236,-0.89722 0.38666,-0.38667 0.18488,0.462 0.16215,1.014 -0.0505,1.22667 -0.21267,0.21266 -0.36393,-0.16534 -0.33614,-0.84 z m -60.85052,-1.54667 c 0,-0.352 0.288,-0.64 0.64,-0.64 0.352,0 0.64,0.288 0.64,0.64 0,0.352 -0.288,0.64 -0.64,0.64 -0.352,0 -0.64,-0.288 -0.64,-0.64 z m 37.11999,-0.85869 c 0,-1.19952 -0.52262,-1.65529 -2.61796,-2.28306 -2.33272,-0.6989 -2.71104,-0.65764 -3.47219,0.37869 -0.80031,1.08965 -0.89664,1.05198 -1.52619,-0.59694 -0.36959,-0.968 -1.12014,-1.76 -1.6679,-1.76 -1.42584,0 -1.93673,-1.84177 -0.76303,-2.75075 0.54629,-0.42309 1.73968,-3.24938 2.65197,-6.28065 1.95962,-6.51124 3.20093,-7.89169 7.11553,-7.91314 2.39008,-0.0131 2.76614,-0.18621 2.46676,-1.13546 -0.48598,-1.54084 0.80988,-1.41542 1.65301,0.16 0.37677,0.704 0.4589,1.28108 0.18252,1.28239 -0.27639,10e-4 0.43936,0.57666 1.59053,1.27853 3.3225,2.02574 3.63959,3.43968 2.11258,9.42039 -0.7291,2.85557 -1.32563,6.38737 -1.32563,7.84845 0,2.79876 -0.045,2.81736 -3.59589,1.48621 -0.39374,-0.1476 -0.87078,0.32393 -1.06008,1.04783 -0.4705,1.79921 -1.74403,1.66594 -1.74403,-0.18249 z m 2.24,-17.06131 c -0.21755,-0.352 -0.68354,-0.64 -1.03554,-0.64 -0.352,0 -0.46201,0.288 -0.24446,0.64 0.21755,0.352 0.68354,0.64 1.03554,0.64 0.352,0 0.46201,-0.288 0.24446,-0.64 z m 13.12,18.30847 c 0,-0.13834 0.432,-0.4173 0.96,-0.61991 0.528,-0.20261 0.96,-0.0894 0.96,0.25152 0,0.34096 -0.432,0.61992 -0.96,0.61992 -0.528,0 -0.96,-0.11319 -0.96,-0.25153 z m -51.19999,-6.78847 c 0,-0.352 0.305,-0.64 0.67778,-0.64 0.37277,0 0.49977,0.288 0.28222,0.64 -0.21754,0.352 -0.52254,0.64 -0.67777,0.64 -0.15522,0 -0.28223,-0.288 -0.28223,-0.64 z m 44.91748,-1.75453 c 0.11307,-0.97954 0.65085,-1.83941 1.21753,-1.94671 0.72115,-0.13654 0.9682,0.23245 0.85333,1.27453 -0.0889,0.80669 -0.18568,1.68271 -0.21502,1.94671 -0.0293,0.264 -0.50446,0.48 -1.05584,0.48 -0.71546,0 -0.94453,-0.50236 -0.8,-1.75453 z m -35.14986,-4.44738 c 0.59505,-0.59504 1.26161,-0.90221 1.48124,-0.68258 0.62987,0.62989 -0.33709,1.76449 -1.50377,1.76449 -0.97695,0 -0.97519,-0.0842 0.0225,-1.08191 z m 41.11237,0.44191 c -0.52192,-0.84449 0.24334,-2.04292 1.00423,-1.57267 0.77735,0.48043 0.7723,2.21267 -0.006,2.21267 -0.33122,0 -0.78022,-0.288 -0.99777,-0.64 z m -3.52,-0.99777 c 0,-0.54878 0.2927,-0.81687 0.65044,-0.59578 0.35774,0.2211 0.48475,0.67009 0.28223,0.99777 -0.54863,0.88771 -0.93267,0.72219 -0.93267,-0.40199 z m -39.35999,-0.92223 c -0.21754,-0.352 0.19746,-0.64 0.92223,-0.64 0.72478,0 1.31777,0.288 1.31777,0.64 0,0.352 -0.415,0.64 -0.92222,0.64 -0.50723,0 -1.10023,-0.288 -1.31778,-0.64 z m 43.96476,-4.16 c 0.0131,-1.056 0.15648,-1.41052 0.31875,-0.78782 0.16226,0.6227 0.15159,1.4867 -0.0238,1.92 -0.17531,0.4333 -0.30807,-0.0762 -0.29503,-1.13218 z m -5.24477,-1.95777 c 0,-0.54878 0.2927,-0.81687 0.65044,-0.59578 0.35774,0.2211 0.48475,0.67009 0.28223,0.99777 -0.54863,0.88771 -0.93267,0.72219 -0.93267,-0.40199 z m -23.8,-2.63942 c 0.462,-0.18488 1.01401,-0.16214 1.22667,0.0505 0.21267,0.21266 -0.16534,0.36393 -0.84,0.33614 -0.74557,-0.0307 -0.89721,-0.18237 -0.38667,-0.38667 z m 12.63768,-1.20576 c -0.68328,-0.50438 -2.16831,-0.91705 -3.30008,-0.91705 -1.74267,0 -2.00651,-0.196 -1.72304,-1.28 0.18411,-0.704 0.0367,-1.28 -0.32757,-1.28 -0.36427,0 -1.11785,-0.17481 -1.67464,-0.38847 -0.77571,-0.29767 -1.01235,0.0336 -1.01235,1.41714 0,1.68412 -0.0717,1.73395 -1.06502,0.74059 -0.81559,-0.81559 -0.8941,-1.27096 -0.33523,-1.94437 0.54761,-0.65982 0.54187,-1.06727 -0.023,-1.63212 -0.57703,-0.57703 -0.50759,-0.75277 0.29745,-0.75277 0.57763,0 1.22142,0.277 1.43066,0.61555 0.24286,0.39296 0.97892,0.388 2.03557,-0.0138 1.96482,-0.74703 8.44067,-0.63956 8.9275,0.14815 0.18727,0.30301 0.60013,0.39045 0.91747,0.19433 0.31734,-0.19613 1.43514,0.0872 2.48399,0.62955 2.46688,1.27568 2.77845,1.24328 2.30768,-0.23998 -0.49566,-1.56167 0.79604,-2.40022 1.92486,-1.24958 0.58848,0.59985 0.71516,1.56629 0.40213,3.06787 -0.53092,2.54682 -1.94955,3.35111 -2.46102,1.39528 -0.2387,-0.91279 -0.86413,-1.34741 -1.93896,-1.34741 -1.848,0 -5.1756,1.81112 -5.44114,2.96147 -0.13899,0.60209 -0.48161,0.57218 -1.42529,-0.12442 z m -2.59768,-4.11705 c 0.21755,-0.352 0.0906,-0.64 -0.28222,-0.64 -0.37278,0 -0.67778,0.288 -0.67778,0.64 0,0.352 0.127,0.64 0.28223,0.64 0.15523,0 0.46022,-0.288 0.67777,-0.64 z m 8.67038,3.89677 c -0.41993,-0.78466 -0.44413,-1.40106 -0.0642,-1.63585 0.33529,-0.20722 0.91285,0.18982 1.28346,0.88231 0.41994,0.78466 0.44414,1.40106 0.0642,1.63585 -0.33529,0.20722 -0.91286,-0.18982 -1.28347,-0.88231 z m 5.72962,-0.019 c 0,-0.33122 0.28471,-0.77819 0.63267,-0.99324 0.3628,-0.22422 0.47008,0.0327 0.25153,0.60223 -0.42546,1.10875 -0.8842,1.31161 -0.8842,0.39101 z m 0.96645,-5.80821 c 0.2211,-0.35774 0.6701,-0.48475 0.99778,-0.28223 0.8877,0.54863 0.72218,0.93267 -0.402,0.93267 -0.54877,0 -0.81687,-0.2927 -0.59578,-0.65044 z M -1.061171,143.27971 c -2.72179,-2.78736 -3.40761,-3.00803 -3.40761,-1.09643 0,0.86608 0.30768,1.23041 0.86008,1.01843 0.60929,-0.23381 0.77766,0.10109 0.57743,1.14854 -0.20707,1.08319 0.0764,1.59253 1.05992,1.9047 1.40797,0.44687 1.85997,1.61986 0.6242,1.61986 -0.48517,0 -0.45038,0.32291 0.1072,0.99474 0.72163,0.86952 0.93513,0.73417 1.69586,-1.07509 0.84357,-2.00626 0.79697,-2.14494 -1.51708,-4.51475 z m 3.63239,5.2351 c 0,-0.352 -0.305,-0.64 -0.67778,-0.64 -0.37277,0 -0.49977,0.288 -0.28222,0.64 0.21754,0.352 0.52254,0.64 0.67777,0.64 0.15522,0 0.28223,-0.288 0.28223,-0.64 z m 63.36,-2.29333 c 0,-0.55734 -0.34201,-0.89934 -0.76,-0.76 -1.18671,0.39556 -1.38353,1.77333 -0.25334,1.77333 0.55734,0 1.01334,-0.456 1.01334,-1.01333 z m 4.78508,-0.31367 c -0.28256,-0.89025 -0.0519,-1.59703 0.70085,-2.14745 1.14998,-0.84088 0.84736,-3.35541 -0.31719,-2.63567 -0.33017,0.20405 -0.8002,0.0475 -1.04452,-0.34777 -0.32635,-0.52804 -0.56133,-0.52928 -0.88557,-0.004 -0.54528,0.88229 0.68948,6.46256 1.42999,6.46256 0.29568,0 0.34808,-0.59716 0.11644,-1.32701 z m -6.03135,-3.13215 c -0.37642,-0.23265 -0.38012,-0.73208 -0.01,-1.31774 0.85417,-1.35073 0.75433,-1.90311 -0.344,-1.90311 -0.528,0 -0.96,0.432 -0.96,0.96 0,0.528 -0.3744,0.96 -0.832,0.96 -0.4576,0 -1.17108,0.33908 -1.58551,0.75351 -0.57803,0.57802 -0.34699,1.00861 0.992,1.84879 1.58577,0.99505 1.81871,1.00276 2.54546,0.0842 0.47585,-0.60142 0.55436,-1.16283 0.19378,-1.38568 z m 30.68626,1.25915 c 0,-0.352 -0.271,-0.64 -0.60222,-0.64 -0.33123,0 -0.78023,0.288 -0.99778,0.64 -0.21754,0.352 0.0534,0.64 0.60223,0.64 0.54878,0 0.99777,-0.288 0.99777,-0.64 z m -102.55602,-9.12 c -0.40783,-1.24203 -3.68397,-1.42212 -3.68397,-0.20251 0,0.69326 0.60873,1.00251 1.97333,1.00251 1.2921,0 1.88265,-0.27617 1.71064,-0.8 z m 167.351761,-4.7709 c -0.25885,-3.36574 -0.43925,-3.83703 -1.18379,-3.09249 -0.74453,0.74453 -0.71796,1.37516 0.17435,4.13803 0.57901,1.7928 1.11171,3.18443 1.18378,3.0925 0.0721,-0.0919 -0.006,-1.95405 -0.17434,-4.13804 z m -80.155731,3.0109 c 0,-0.352 -0.32327,-0.64 -0.71837,-0.64 -0.51744,0 -0.52493,-0.23308 -0.0268,-0.83331 0.81877,-0.98654 0.29266,-3.41307 -1.09018,-5.0281 -0.75009,-0.87605 -1.12217,-0.96335 -1.55566,-0.36502 -0.37997,0.52448 -0.44257,0.39465 -0.1879,-0.38978 0.24754,-0.76248 -0.12518,-1.61857 -1.05963,-2.43383 l -1.44148,-1.25761 1.6,0.34791 c 0.88,0.19136 1.24,0.18258 0.8,-0.0195 -0.44,-0.20208 -0.8,-0.79654 -0.8,-1.32102 0,-0.56922 -0.45145,-0.8608 -1.12,-0.72337 -0.616,0.12662 -1.41586,-0.15629 -1.77747,-0.6287 -0.50713,-0.66253 -0.68841,-0.48494 -0.79282,0.77671 -0.0745,0.89959 0.12244,1.63562 0.43754,1.63562 0.3151,0 0.42689,0.55841 0.24841,1.2409 -0.17848,0.6825 0.0185,3.2745 0.43775,5.76 l 0.76224,4.5191 h 3.14217 c 1.72822,0 3.1422,-0.288 3.1422,-0.64 z m -39.24281,-9.72 c -0.2043,-0.51055 -0.35596,-0.3589 -0.38667,0.38667 -0.0278,0.67466 0.12347,1.05266 0.33615,0.84 0.21266,-0.21267 0.23539,-0.76467 0.0505,-1.22667 z m 24.52281,0.12 c 0,-0.352 -0.288,-0.64 -0.64,-0.64 -0.352,0 -0.64,0.288 -0.64,0.64 0,0.352 0.288,0.64 0.64,0.64 0.352,0 0.64,-0.288 0.64,-0.64 z m 32.61673,-0.93197 c 1.02984,-1.24087 0.3373,-2.23032 -1.26735,-1.81069 -1.52338,0.39837 -2.1392,1.21305 -1.58939,2.10266 0.57301,0.92714 1.96286,0.78509 2.85674,-0.29197 z m 60.883651,-3.37171 c -0.57509,-0.98792 -0.66401,-0.91331 -0.68094,0.57133 -0.0107,0.93922 0.19654,2.23522 0.46054,2.88 0.40088,0.97911 0.51312,0.88493 0.68094,-0.57133 0.11051,-0.95902 -0.0967,-2.25502 -0.46054,-2.88 z m -79.420381,2.06368 c 0.86482,-1.04205 0.65796,-1.17231 -0.90766,-0.57153 -0.55679,0.21366 -1.01234,0.64566 -1.01234,0.96 0,0.88527 1.03702,0.67545 1.92,-0.38847 z m 32.466661,0.57333 c -0.21266,-0.21266 -0.76467,-0.2354 -1.22667,-0.0505 -0.51054,0.2043 -0.3589,0.35595 0.38667,0.38666 0.67467,0.0278 1.05267,-0.12348 0.84,-0.33614 z m -13.822651,-7.63598 c 0.15743,0.15743 0.33219,-0.78107 0.38835,-2.08555 0.0562,-1.30449 0.69285,-4.20932 1.41487,-6.45517 0.722021,-2.24586 1.312761,-4.62186 1.312761,-5.28 0,-0.658147 0.288,-1.196627 0.64,-1.196627 0.352,0 0.64,-0.432 0.64,-0.96 0,-0.528 -0.2304,-0.96 -0.512,-0.96 -0.90366,0 -2.048001,1.50051 -2.048001,2.685447 0,0.6322 -0.62504,2.9506 -1.38898,5.152 -0.76394,2.2014 -1.4618,4.72255 -1.55079,5.60255 -0.089,0.88 -0.3779,2.32 -0.642,3.2 -0.41351,1.37779 -0.3455,1.48967 0.48967,0.80556 0.53344,-0.43695 1.09868,-0.66564 1.25612,-0.50821 z m -35.69257,-0.61735 c -0.20262,-0.528 -0.48158,-0.96 -0.61992,-0.96 -0.13833,0 -0.25152,0.432 -0.25152,0.96 0,0.528 0.27896,0.96 0.61991,0.96 0.34095,0 0.45414,-0.432 0.25153,-0.96 z m 14.48856,0.39836 c 0,-0.30889 -0.432,-0.92016 -0.96,-1.35836 -0.77857,-0.64615 -0.96,-0.62064 -0.96,0.13497 0,0.51243 0.192,1.1237 0.42666,1.35836 0.6078,0.6078 1.49334,0.52776 1.49334,-0.13497 z m 44.799991,-0.71836 c 0,-0.352 -0.127,-0.64 -0.28222,-0.64 -0.15523,0 -0.46023,0.288 -0.67778,0.64 -0.21755,0.352 -0.0905,0.64 0.28223,0.64 0.37278,0 0.67777,-0.288 0.67777,-0.64 z m -16,-0.64 c 0,-0.352 -0.30499,-0.64 -0.67777,-0.64 -0.37277,0 -0.49977,0.288 -0.28223,0.64 0.21755,0.352 0.52255,0.64 0.67778,0.64 0.15522,0 0.28222,-0.288 0.28222,-0.64 z m -141.439991,-2.84223 c 0,-0.6755 -1.22823,-0.9593 -1.59355,-0.36821 -0.2211,0.35774 0.047,0.65044 0.59578,0.65044 0.54877,0 0.99777,-0.127 0.99777,-0.28223 z m 138.239991,-0.99777 c 0,-0.352 -0.30499,-0.64 -0.67777,-0.64 -0.37277,0 -0.49977,0.288 -0.28223,0.64 0.21755,0.352 0.52255,0.64 0.67778,0.64 0.15522,0 0.28222,-0.288 0.28222,-0.64 z m 2.56,-0.96 c 0,-0.528 -0.11319,-0.96 -0.25152,-0.96 -0.13834,0 -0.4173,0.432 -0.61992,0.96 -0.20261,0.528 -0.0894,0.96 0.25153,0.96 0.34095,0 0.61991,-0.432 0.61991,-0.96 z m -17.920001,-0.32 c 0,-0.352 -0.576,-0.64 -1.28,-0.64 -0.704,0 -1.28,0.288 -1.28,0.64 0,0.352 0.576,0.64 1.28,0.64 0.704,0 1.28,-0.288 1.28,-0.64 z m 2.38667,-0.38667 c -0.21267,-0.21266 -0.76467,-0.2354 -1.22667,-0.0505 -0.51054,0.2043 -0.35889,0.35595 0.38667,0.38666 0.67467,0.0278 1.05267,-0.12348 0.84,-0.33614 z m 6.68162,-1.66624 c 0.58755,0.0251 1.22738,-0.36902 1.42182,-0.87574 0.28925,-0.75378 -0.31229,-0.87174 -3.30828,-0.64877 -2.014,0.14989 -3.76909,0.29613 -3.90019,0.32497 -0.1311,0.0289 0.13553,0.50297 0.59251,1.0536 0.57717,0.69544 1.33393,0.86361 2.47837,0.55075 0.90611,-0.24771 2.12821,-0.42988 2.71577,-0.40481 z m 30.483701,0.005 c 0.4224,-0.4224 0.768,-1.11089 0.768,-1.52998 0,-0.94087 -3.88616,-1.44623 -6.9794,-0.90761 -2.11277,0.3679 -2.17849,0.44169 -0.80494,0.90389 0.8226,0.2768 2.50364,0.31417 3.73564,0.0831 2.05126,-0.38482 2.20471,-0.30906 1.82122,0.89921 -0.46367,1.46089 0.27205,1.73887 1.45948,0.55144 z m 34.65355,-0.433 c 3.74598,-0.84167 5.18771,-2.33377 1.63445,-1.69156 -2.76483,0.49971 -23.88345,0.48014 -24.69736,-0.0229 -0.27181,-0.16798 -0.64668,-0.0587 -0.83306,0.24287 -0.41394,0.66978 -4.2394,0.58876 -5.36544,-0.11364 -0.46828,-0.29211 -0.74093,-0.23525 -0.64,0.13348 0.0967,0.35332 -0.40014,1.07706 -1.10414,1.60831 -1.15035,0.86808 0.21589,0.94034 13.48821,0.71352 8.12251,-0.13882 16.00531,-0.53036 17.51734,-0.87009 z m 7.21312,-0.83633 c -0.97761,-0.97761 -1.69897,-0.25625 -1.15675,1.15675 0.32015,0.83429 0.5977,0.91696 1.16706,0.3476 0.56936,-0.56936 0.56691,-0.92714 -0.0103,-1.50435 z m -60.93866,-0.52276 c -2.05506,-1.55013 -2.5707,-1.03449 -0.64,0.64 0.81687,0.70847 1.65074,1.1226 1.85305,0.92029 0.20231,-0.20231 -0.34356,-0.90444 -1.21305,-1.56029 z m 6.86182,0.76367 c 0.93363,-0.59319 0.45431,-4.03116 -0.66088,-4.740237 -1.29903,-0.82597 -1.55442,-0.56548 -1.23198,1.256567 0.25535,1.44293 0.15865,1.61588 -0.53674,0.96 -1.19437,-1.12648 -1.90646,-0.99391 -1.42337,0.26499 0.30648,0.79866 0.18141,0.92798 -0.50008,0.51715 -0.78316,-0.47213 -0.78402,-0.39415 -0.006,0.56413 0.49639,0.61159 1.28839,0.96391 1.76,0.78294 0.47161,-0.18097 0.85746,-0.05 0.85746,0.29087 0,0.74238 0.67339,0.78242 1.74182,0.10359 z M 75.225939,99.451013 c -0.24902,-1.99308 -0.69595,-4.22508 -0.99318,-4.96 l -0.54041,-1.3362 -0.0406,1.33326 c -0.0525,1.7258 1.32303,8.586737 1.72154,8.586737 0.16797,0 0.10165,-1.63071 -0.14737,-3.623797 z m -22.73472,2.343797 c 0,-0.352 -0.288,-0.64 -0.64,-0.64 -0.352,0 -0.64,0.288 -0.64,0.64 0,0.352 0.288,0.64 0.64,0.64 0.352,0 0.64,-0.288 0.64,-0.64 z M 153.50847,100.1647 c 0.89158,-1.956797 0.91189,-2.209887 0.17738,-2.209887 -0.31095,0 -0.74313,0.504 -0.96041,1.12 -0.21728,0.616 -0.56288,1.479997 -0.76798,1.919997 -0.20511,0.44 -0.10715,0.8 0.21768,0.8 0.32483,0 0.92483,-0.73355 1.33333,-1.63011 z M 70.411219,99.554813 c 0,-0.528 -0.288,-0.96 -0.64,-0.96 -0.352,0 -0.64,0.432 -0.64,0.96 0,0.527997 0.288,0.959997 0.64,0.959997 0.352,0 0.64,-0.432 0.64,-0.959997 z m 62.521891,-0.60952 c -1.45981,-1.45982 -2.11544,-1.20612 -0.75835,0.29344 0.63906,0.70616 1.29398,1.151877 1.45537,0.990477 0.1614,-0.1614 -0.15226,-0.739157 -0.69702,-1.283917 z m 58.11809,-0.99048 c 0.23759,-0.38443 -0.57793,-0.63609 -2.04223,-0.6302 -1.80961,0.007 -2.1904,0.16966 -1.47777,0.6302 1.25164,0.80887 3.02009,0.80887 3.52,0 z m -94.019181,-2.01907 1.21919,-1.37907 -1.76,1.13267 c -1.81475,1.16792 -2.15794,1.62547 -1.21919,1.62547 0.29745,0 1.08945,-0.62058 1.76,-1.37907 z m 32.240651,-1.20593 c -0.51781,-0.32747 -1.37347,-0.59556 -1.90147,-0.59577 -0.52912,-2e-4 -0.24188,0.37809 0.64,0.84284 1.74579,0.92003 2.78506,0.71648 1.26147,-0.24707 z m 72.97853,-1.21723 c 0,-0.89183 -1.17654,-1.45726 -1.98833,-0.95554 -0.49377,0.30517 -0.44531,0.60442 0.16,0.98797 1.14246,0.7239 1.82833,0.71173 1.82833,-0.0324 z m -68.48,-1.44009 c 0,0.41928 0.43444,0.76232 0.96542,0.76232 0.80522,0 0.83278,-0.21241 0.16606,-1.28 -1.40847,-2.25531 -4.0783,-1.23776 -3.17427,1.20979 0.25886,0.70083 0.51066,0.64088 1.18572,-0.28232 0.47139,-0.64466 0.85707,-0.82907 0.85707,-0.40979 z m 47.113,-2.91768 c -0.0622,-2.04621 -0.38966,-2.56179 -2.22115,-3.49756 -1.87907,-0.960083 -2.26469,-0.981024 -3.07852,-0.16719 -0.51172,0.51171 -0.98505,1.70885 -1.05186,2.66033 -0.10518,1.498 0.22179,1.83562 2.43853,2.518 3.83217,1.17967 3.99303,1.11745 3.913,-1.51358 z m -68.87299,0.48 c 0,-0.352 -0.44899,-0.64 -0.99777,-0.64 -0.54877,0 -0.81977,0.288 -0.60223,0.64 0.21755,0.352 0.66655,0.64 0.99778,0.64 0.33122,0 0.60222,-0.288 0.60222,-0.64 z m 91.51999,-0.96 c 0,-0.528 -0.288,-0.96 -0.64,-0.96 -0.352,0 -0.64,0.432 -0.64,0.96 0,0.528 0.288,0.96 0.64,0.96 0.352,0 0.64,-0.432 0.64,-0.96 z m -110.124971,-1.76 c -0.0366,-1.693803 -0.13902,-1.84234 -0.55143,-0.8 -0.27855,0.704 -0.3715,1.64 -0.20655,2.08 0.51468,1.3729 0.80476,0.88304 0.75798,-1.28 z m 3.24498,0.48 c 0.76176,0 0.91778,-0.72691 0.75556,-3.519998 -0.11245,-1.936 -0.41062,-4.528 -0.6626,-5.76 -0.40094,-1.960256 -0.72526,-2.265805 -2.59698,-2.446624 -1.7083,-0.16503 -2.5772,0.218259 -4.3166,1.904147 -1.82592,1.769754 -2.11523,2.423533 -1.79079,4.046624 0.98813,4.943131 1.55525,5.282891 3.49843,2.095853 1.01369,-1.662573 1.27277,-1.823123 1.29095,-0.8 0.0217,1.221197 0.0631,1.22679 0.90095,0.121702 1.21745,-1.605747 1.61638,-0.606502 1.03253,2.586316 -0.47843,2.61634 -0.0999,4.29214 0.5885,2.60527 0.18703,-0.45831 0.77205,-0.83329 1.30005,-0.83329 z m -5.38433,-8.200158 c -0.89822,-0.656787 -1.00552,-1.010566 -0.41686,-1.374381 0.92484,-0.571577 2.21483,0.493639 1.86581,1.540691 -0.16647,0.499424 -0.60778,0.448768 -1.44895,-0.16631 z m 41.558891,6.721398 c -0.76613,-0.766134 -4.09263,-0.652387 -3.79252,0.12967 0.50627,1.31931 3.07212,2.12689 3.67662,1.15719 0.29626,-0.47526 0.34842,-1.05434 0.1159,-1.28686 z M 69.197529,84.965132 c -0.51509,-0.515091 -0.70105,-0.195168 -0.68685,1.181681 0.0171,1.65511 0.10418,1.74224 0.70631,0.70632 0.49227,-0.84689 0.48675,-1.38179 -0.0195,-1.888001 z m 52.096481,2.105161 c 0.21908,-0.35449 -0.12392,-0.80751 -0.76223,-1.00672 -0.63831,-0.19921 -1.6947,-0.65043 -2.34754,-1.002723 -0.92067,-0.496825 -1.07779,-0.450445 -0.70035,0.20672 1.41772,2.468363 2.95051,3.193593 3.81012,1.802723 z m -10.55572,-1.28871 c 0.76051,-1.421008 0.28392,-2.802154 -0.74706,-2.164976 -0.35834,0.221466 -0.51301,0.932358 -0.34372,1.57975 0.1693,0.647396 -0.0216,1.312156 -0.42424,1.477246 -0.51845,0.21258 -0.5052,0.3149 0.0454,0.35068 0.42762,0.0278 1.08894,-0.53142 1.4696,-1.2427 z m -37.225911,-7.12392 c -0.0164,-2.116307 -0.22293,-2.97776 -0.5767,-2.40535 -0.45403,0.734636 -0.69685,0.744166 -1.37782,0.05408 -0.67662,-0.685703 -0.60119,-1.004141 0.41568,-1.75465 1.29872,-0.958547 3.20499,-1.26672 2.70262,-0.436915 -0.15982,0.264 0.0802,0.822406 0.53337,1.240909 0.63755,0.588761 1.0748,0.577491 1.93271,-0.04986 1.62575,-1.188775 1.96956,-12.955578 0.40188,-13.754324 -1.84492,-0.939993 -5.2129,-1.368332 -5.2129,-0.662969 0,0.363974 -0.33332,0.455769 -0.7407,0.203993 -0.54074,-0.334195 -0.63129,0.340474 -0.33542,2.499053 0.32956,2.404397 0.19891,3.077101 -0.6993,3.600544 -0.60752,0.354042 -0.76399,0.652474 -0.34771,0.663175 0.41628,0.01069 0.93968,0.595462 1.16313,1.299462 0.84352,2.657709 1.52398,1.12503 1.27863,-2.88 l -0.25485,-4.16 h 1.85034 c 1.01768,0 1.97459,0.216 2.12647,0.48 0.15187,0.264 0.44737,2.928 0.65667,5.92 0.31977,4.571302 0.25616,5.171469 -0.39837,3.758394 -0.42839,-0.924884 -1.06689,-1.788884 -1.41889,-1.92 -0.352,-0.131117 -0.56087,-0.475802 -0.46415,-0.765965 0.0967,-0.290163 -0.11928,-0.345165 -0.48,-0.122227 -0.36072,0.222937 -0.65585,0.851155 -0.65585,1.396044 0,0.577216 -0.36695,0.849888 -0.8792,0.653319 -0.81514,-0.3128 -1.74185,0.951782 -2.51158,3.427245 -0.16876,0.542745 0.0931,1.533792 0.58197,2.202323 0.48884,0.668531 0.88881,1.678867 0.88881,2.24519 0,0.853453 1.12873,2.565677 1.69135,2.565677 0.0854,0 0.14386,-1.483718 0.12981,-3.297152 z m 97.205491,2.270483 c -0.21266,-0.212665 -0.76467,-0.235398 -1.22667,-0.0505 -0.51055,0.204301 -0.3589,0.355955 0.38667,0.386663 0.67466,0.02778 1.05267,-0.123476 0.84,-0.336141 z m -59.34666,-1.533331 c 0,-0.352 -0.288,-0.64 -0.64,-0.64 -0.352,0 -0.64,0.288 -0.64,0.64 0,0.352 0.288,0.64 0.64,0.64 0.352,0 0.64,-0.288 0.64,-0.64 z m 4.36535,-1.44 c 0.30906,-1.144 0.51232,-2.148979 0.45167,-2.233293 -0.0607,-0.08431 -0.88139,0.203693 -1.82389,0.64 -0.98897,0.457824 -1.5782,1.153735 -1.39338,1.645639 0.17614,0.468787 0.32025,1.116787 0.32025,1.44 0,1.53552 1.94861,0.346329 2.44535,-1.492346 z m -9.28504,0.398547 c 0.88254,-0.497849 1.05433,-1.076755 0.71765,-2.418233 -0.24347,-0.970029 -0.8376,-1.915245 -1.32031,-2.100474 -1.09765,-0.42121 -1.15317,-1.479667 -0.0777,-1.480339 0.78897,-4.99e-4 3.85284,-5.8 3.33678,-6.316064 -0.44129,-0.44128 -2.21678,1.293907 -2.21678,2.166457 0,0.447239 -0.432,0.978932 -0.96,1.181549 -0.71532,0.274496 -0.96,-0.09778 -0.96,-1.460627 0,-2.070528 -1.60272,-4.235942 -3.55067,-4.797286 -2.016531,-0.581095 -3.294511,3.378336 -2.180211,6.754688 0.44867,1.359481 1.057661,2.471782 1.353321,2.471782 0.8191,0 0.64092,3.060582 -0.20875,3.585702 -0.502671,0.310669 -0.1784,0.914087 0.9933,1.848365 1.84956,1.474784 3.19438,1.624416 5.07332,0.56448 z M 99.952259,67.234815 c 0,-0.88 0.145271,-1.24 0.322811,-0.8 0.17755,0.44 0.17755,1.16 0,1.6 -0.17754,0.44 -0.322811,0.08 -0.322811,-0.8 z m 9.498951,11.877773 c 0,-0.155226 -0.288,-0.460224 -0.64,-0.677773 -0.352,-0.217549 -0.64,-0.09055 -0.64,0.282227 0,0.372775 0.288,0.677773 0.64,0.677773 0.352,0 0.64,-0.127002 0.64,-0.282227 z m -148.479991,-0.64 c 0,-0.155226 -0.288,-0.460224 -0.64,-0.677773 -0.352,-0.217549 -0.64,-0.09055 -0.64,0.282227 0,0.372775 0.288,0.677773 0.64,0.677773 0.352,0 0.64,-0.127002 0.64,-0.282227 z m 75.09234,-1.657235 c 0.41121,-0.01069 0.24138,-0.314292 -0.37741,-0.674637 -1.20181,-0.699866 -2.39493,-0.301146 -2.39493,0.800345 0,0.368884 0.45555,0.495885 1.01234,0.282228 0.55679,-0.213664 1.34879,-0.397229 1.76,-0.407936 z m 27.05432,-4.287207 c -0.65057,-0.650566 -1.18736,0.32889 -0.65358,1.192563 0.40322,0.652429 0.55397,0.652935 0.77076,0.0026 0.14822,-0.444665 0.0955,-0.982476 -0.11718,-1.195148 z m -19.95072,-0.377363 c -0.41493,-1.081286 -2.67588,-2.089363 -3.29578,-1.469466 -0.19985,0.199853 0.18185,0.564429 0.84823,0.81017 0.66638,0.245741 1.45401,0.850118 1.75027,1.343066 0.69592,1.157913 1.2104,0.653395 0.69728,-0.68377 z m 5.46445,-0.755968 c 0,-0.352 -0.27917,-0.208 -0.62039,0.32 -0.34123,0.528 -0.6204,1.248 -0.6204,1.6 0,0.352 0.27917,0.208 0.6204,-0.32 0.34122,-0.528 0.62039,-1.248 0.62039,-1.6 z m 17.29961,-1.957773 c 0,-0.548774 -0.2927,-0.81687 -0.65044,-0.595776 -0.35774,0.221095 -0.48475,0.670093 -0.28223,0.997773 0.54863,0.887706 0.93267,0.722182 0.93267,-0.401997 z M 165.7712,69.227973 c 0,-0.663763 -0.37443,-1.928556 -0.83206,-2.810656 l -0.83207,-1.603808 -1.0774,1.327847 c -1.2567,1.548813 -0.93349,2.284429 0.48606,1.106297 0.60825,-0.5048 0.97547,-0.553356 0.97547,-0.128972 0,0.374323 -0.28513,0.856812 -0.63362,1.072198 -0.39945,0.246867 -0.34032,0.724909 0.16,1.293427 1.10682,1.257715 1.75362,1.163175 1.75362,-0.256333 z M 75.968409,68.394815 c -0.20431,-0.510547 -0.35596,-0.358899 -0.38667,0.386669 -0.0278,0.674662 0.12347,1.052665 0.33614,0.84 0.21267,-0.212672 0.2354,-0.764672 0.0505,-1.226669 z m -30.22453,0.164224 c 0.20252,-0.32768 0.0755,-0.776678 -0.28223,-0.997773 -0.35774,-0.221094 -0.65043,0.04698 -0.65043,0.595776 0,1.124179 0.38403,1.289703 0.93266,0.401997 z m 29.14734,-2.001997 c 0,-1.076774 -0.24938,-1.803648 -0.55417,-1.61527 -0.51557,0.31863 -0.23432,3.573043 0.30878,3.573043 0.13496,0 0.24539,-0.880998 0.24539,-1.957773 z m 73.038241,0.550733 c -0.59905,-1.619386 -1.99826,-2.329606 -1.99826,-1.014291 0,0.954963 1.22779,2.421331 2.02738,2.421331 0.27025,0 0.25715,-0.633171 -0.0291,-1.40704 z M 65.931219,66.993177 c 0,-0.132896 -0.504,-0.636896 -1.12,-1.12 -1.01508,-0.796077 -1.03772,-0.77344 -0.24164,0.241638 0.83607,1.06608 1.36164,1.405107 1.36164,0.878362 z M 132.1712,65.954815 c 0.21755,-0.352 -0.21445,-0.64 -0.96,-0.64 -0.74555,0 -1.17755,0.288 -0.96,0.64 0.21755,0.352 0.64955,0.64 0.96,0.64 0.31045,0 0.74245,-0.288 0.96,-0.64 z m 5.67486,-1.591104 c -0.24169,-0.629811 0.25156,-1.204339 1.46008,-1.70073 3.05376,-1.254304 0.0451,-1.443846 -3.616,-0.227814 -3.77828,1.254944 -4.76491,2.30944 -1.69464,1.8112 1.27641,-0.20713 2.35416,-0.05946 2.61211,0.357914 0.65274,1.056147 1.6609,0.860313 1.23845,-0.24057 z m -17.19485,-0.328896 c 0.21755,-0.352 0.0906,-0.64 -0.28222,-0.64 -0.37278,0 -0.67778,0.288 -0.67778,0.64 0,0.352 0.12701,0.64 0.28223,0.64 0.15523,0 0.46022,-0.288 0.67777,-0.64 z m 4.88687,-1.156576 -1.51312,-1.016659 2.47312,-0.78793 2.47312,-0.787936 -3.52,0.354055 c -4.05003,0.407372 -5.0263,1.005625 -3.88504,2.380755 0.53313,0.642387 1.41341,0.836621 2.66086,0.587129 1.28918,-0.257836 1.86418,-0.117856 1.86418,0.453831 0,0.454662 0.216,0.603181 0.48,0.330035 0.264,-0.273139 -0.20091,-0.954118 -1.03312,-1.51328 z m 22.95312,1.156576 c 0,-0.352 -0.449,-0.64 -0.99777,-0.64 -0.54877,0 -0.81978,0.288 -0.60223,0.64 0.21755,0.352 0.66655,0.64 0.99778,0.64 0.33122,0 0.60222,-0.288 0.60222,-0.64 z m 7.33992,-0.96 c -1.07009,-3.425254 -0.97025,-3.299302 -1.6523,-2.084397 -0.4364,0.777338 -0.37484,1.40064 0.20304,2.055655 1.08269,1.227225 1.82829,1.242009 1.44926,0.02874 z m -40.54661,-1.76 c 0.41708,-0.792 1.0728,-1.644006 1.45716,-1.89335 0.4937,-0.320276 0.46424,-0.687956 -0.10038,-1.25257 -1.02311,-1.023117 -2.43322,0.280256 -3.05734,2.82592 -0.52957,2.160045 0.61786,2.375962 1.70056,0.32 z m 30.32669,0.16 c 0.21755,-0.352 0.10754,-0.64 -0.24446,-0.64 -0.352,0 -0.81799,0.288 -1.03554,0.64 -0.21755,0.352 -0.10754,0.64 0.24446,0.64 0.352,0 0.81799,-0.288 1.03554,-0.64 z m -33.27999,-1.28 c 0.43297,-1.364154 -0.11306,-3.84 -0.8469,-3.84 -0.24234,0 -0.83701,0.895475 -1.32147,1.989939 -0.74857,1.691143 -0.748,2.074074 0.004,2.550202 1.32201,0.837286 1.71721,0.709459 2.1646,-0.700141 z m 40.51957,-0.472653 c -0.11785,-0.611955 -0.69239,-1.204723 -1.27675,-1.317261 -0.79224,-0.152576 -0.97487,0.130432 -0.71801,1.112647 0.41937,1.603705 2.30138,1.796755 1.99476,0.204614 z M 49.451219,57.68565 c 0.968,-0.498925 1.76,-1.195785 1.76,-1.548588 0,-0.352803 0.47823,-1.169902 1.06274,-1.815777 0.58451,-0.645874 0.85023,-1.386828 0.5905,-1.646562 -0.25974,-0.259735 -1.6392,0.77879 -3.06547,2.307833 -1.97049,2.112464 -2.72471,2.572617 -3.1407,1.916168 -0.30112,-0.47515 -0.55189,-1.127909 -0.55728,-1.450576 -0.005,-0.322666 -0.19256,-0.403901 -0.41594,-0.180521 -0.22338,0.22338 -0.0364,1.298816 0.41553,2.389857 0.45193,1.09104 0.99469,1.747821 1.20615,1.459501 0.21145,-0.288314 1.17647,-0.932416 2.14447,-1.431335 z m 74.079991,0.946938 c 0,-0.507226 -0.288,-1.100224 -0.64,-1.317773 -0.352,-0.217549 -0.64,0.197453 -0.64,0.922227 0,0.724775 0.288,1.317773 0.64,1.317773 0.352,0 0.64,-0.415002 0.64,-0.922227 z m 6.55999,0.498368 c -0.44,-0.177543 -1.16,-0.177543 -1.6,0 -0.44,0.177542 -0.08,0.322809 0.8,0.322809 0.88,0 1.24,-0.145267 0.8,-0.322809 z m 6.88,-0.216141 c 0,-0.352 -0.432,-0.64 -0.96,-0.64 -0.528,0 -0.96,0.288 -0.96,0.64 0,0.352 0.432,0.64 0.96,0.64 0.528,0 0.96,-0.288 0.96,-0.64 z m 3.02667,0.253331 c -0.21266,-0.212665 -0.76467,-0.235398 -1.22667,-0.0505 -0.51054,0.204301 -0.3589,0.355955 0.38667,0.386663 0.67466,0.02778 1.05267,-0.123469 0.84,-0.336141 z m -31.18666,-1.213331 c 0,-0.528 -0.288,-0.96 -0.64,-0.96 -0.352,0 -0.64,0.432 -0.64,0.96 0,0.528 0.288,0.96 0.64,0.96 0.352,0 0.64,-0.432 0.64,-0.96 z m -41.599991,-0.32 c 0,-0.352 -0.288,-0.64 -0.64,-0.64 -0.352,0 -0.64,0.288 -0.64,0.64 0,0.352 0.288,0.64 0.64,0.64 0.352,0 0.64,-0.288 0.64,-0.64 z m 58.879981,-1.28 c 0,-1.056 -0.288,-1.92 -0.64,-1.92 -0.352,0 -0.64,0.864 -0.64,1.92 0,1.056 0.288,1.92 0.64,1.92 0.352,0 0.64,-0.864 0.64,-1.92 z M 78.760549,55.129628 c -0.84967,-1.587615 0.24704,-1.87092 1.13061,-0.292063 0.32096,0.573512 0.92351,0.92943 1.33902,0.790929 0.4716,-0.157202 -0.0964,-1.450012 -1.51175,-3.440704 -1.99901,-2.81165 -2.26837,-2.999851 -2.27701,-1.590929 -0.005,0.878875 -0.252,1.979966 -0.54801,2.44687 -0.34554,0.545029 -0.0583,1.3877 0.80244,2.354029 1.56889,1.761362 2.08173,1.63221 1.0647,-0.268132 z m 44.991511,0.877585 c -0.20844,-0.543181 -0.51624,-0.850342 -0.684,-0.68258 -0.16776,0.167762 -0.11518,0.612183 0.11684,0.987602 0.63107,1.021095 0.99991,0.822727 0.56716,-0.305022 z m -5.02085,-0.932398 c -0.21755,-0.352 -0.66654,-0.64 -0.99777,-0.64 -0.33122,0 -0.60223,0.288 -0.60223,0.64 0,0.352 0.449,0.64 0.99778,0.64 0.54877,0 0.81977,-0.288 0.60222,-0.64 z M 62.484179,53.029289 c -0.56813,-0.317943 -1.03296,-1.139767 -1.03296,-1.826276 0,-1.391903 0.66763,-1.604561 1.72329,-0.548908 1.26599,1.265988 4.69904,-1.154937 4.62192,-3.25929 -0.0232,-0.634546 -0.20016,-0.538508 -0.52182,0.283287 -0.43351,1.10756 -0.60407,1.007896 -1.5623,-0.912932 -0.59162,-1.18592 -0.91635,-2.658171 -0.72163,-3.27167 0.24165,-0.761375 -0.0812,-1.253594 -1.01714,-1.550644 -1.05004,-0.333269 -1.19322,-0.607665 -0.61137,-1.171617 0.57698,-0.55923 1.01596,-0.372951 1.82442,0.774177 0.58555,0.830831 1.75974,2.259035 2.60932,3.173786 1.47423,1.587317 1.56706,1.605993 2.03502,0.409399 0.77865,-1.99106 0.73033,-2.071895 -2.29971,-3.847622 -1.79353,-1.051078 -2.88,-2.14169 -2.88,-2.890978 0,-2.678086 -6.313,0.452507 -6.37871,3.163179 -0.0176,0.72701 -0.19512,0.734101 -1.03008,0.04115 -0.83194,-0.690454 -1.10108,-0.687843 -1.5354,0.01489 -0.28964,0.468658 -0.9877,0.675178 -1.55123,0.458933 -0.76893,-0.295067 -1.02458,10e-4 -1.02458,1.186743 0,0.868953 0.30499,1.579914 0.67777,1.579914 0.37277,0 0.51208,0.2681 0.30956,0.595777 -0.20252,0.327678 -0.0629,0.784471 0.31026,1.015098 0.95885,0.592605 2.53639,-0.881872 2.11589,-1.977667 -0.19714,-0.51375 0.0294,-0.914933 0.51804,-0.917151 0.47767,-0.0022 1.70332,-0.43932 2.72369,-0.971446 1.02038,-0.532128 2.00438,-0.818353 2.18667,-0.636057 0.18229,0.182295 -0.005,0.331446 -0.41522,0.331446 -1.45841,0 -0.71769,1.701895 1.1333,2.603887 l 1.87997,0.916113 -1.25319,1.527228 c -1.19537,1.456763 -1.30965,1.476128 -2.47698,0.419708 -0.89803,-0.812706 -1.76177,-0.989361 -3.24479,-0.663635 -1.67829,0.368612 -1.95838,0.677295 -1.65173,1.820293 0.2031,0.757023 0.37762,1.808406 0.38782,2.336406 0.0102,0.528 0.28018,1.373481 0.59996,1.878847 0.50408,0.796629 0.72797,0.797217 1.68324,0.0044 0.96137,-0.79787 1.18454,-0.78327 1.75087,0.114539 0.38487,0.610159 1.15818,0.895825 1.89992,0.701854 1.10289,-0.288412 1.12867,-0.395501 0.21791,-0.905188 z m 8.56704,0.125526 c 0,-0.352 -0.288,-0.64 -0.64,-0.64 -0.352,0 -0.64,0.288 -0.64,0.64 0,0.352 0.288,0.64 0.64,0.64 0.352,0 0.64,-0.288 0.64,-0.64 z m 10.87999,-0.96 c -0.45232,-0.545013 -0.9664,-0.846932 -1.1424,-0.670932 -0.17599,0.176 0.05,0.765919 0.5024,1.310932 0.45232,0.545013 0.9664,0.846932 1.1424,0.670932 0.176,-0.176 -0.05,-0.765919 -0.5024,-1.310932 z m -43.28855,0 c 0.2244,-0.584775 10e-4,-0.96 -0.57153,-0.96 -0.51695,0 -0.93991,0.432 -0.93991,0.96 0,0.528 0.25719,0.96 0.57152,0.96 0.31435,0 0.7373,-0.432 0.93992,-0.96 z m 87.448541,-0.03777 c 0,-0.548774 -0.288,-0.819777 -0.64,-0.602229 -0.352,0.217548 -0.64,0.666545 -0.64,0.997771 0,0.331226 0.288,0.602229 0.64,0.602229 0.352,0 0.64,-0.448997 0.64,-0.997771 z m 4.48,0.357771 c 0,-0.352 -0.288,-0.64 -0.64,-0.64 -0.352,0 -0.64,0.288 -0.64,0.64 0,0.352 0.288,0.64 0.64,0.64 0.352,0 0.64,-0.288 0.64,-0.64 z M 76.111089,50.202372 c -0.92994,-1.12051 -1.52373,-0.682524 -0.98346,0.725407 0.217,0.565491 0.69856,0.840272 1.07015,0.610624 0.46396,-0.286746 0.4368,-0.705263 -0.0867,-1.336031 z m -6.01987,0.392443 c 0.21754,-0.352 -0.0705,-0.64 -0.64,-0.64 -0.56955,0 -0.85755,0.288 -0.64,0.64 0.21754,0.352 0.50554,0.64 0.64,0.64 0.13445,0 0.42245,-0.288 0.64,-0.64 z m 20.79999,-1.92 c 0,-0.352 -0.127,-0.64 -0.28222,-0.64 -0.15523,0 -0.46023,0.288 -0.67778,0.64 -0.21754,0.352 -0.0905,0.64 0.28223,0.64 0.37278,0 0.67777,-0.288 0.67777,-0.64 z m 33.919991,-0.768 c 0,-1.033867 -0.18925,-1.218745 -0.71222,-0.695764 -0.39173,0.391729 -0.51874,1.025329 -0.28223,1.408 0.662,1.071155 0.99445,0.833051 0.99445,-0.712236 z m -54.719981,0.128 c 0.21754,-0.352 0.0905,-0.64 -0.28223,-0.64 -0.37278,0 -0.67777,0.288 -0.67777,0.64 0,0.352 0.127,0.64 0.28222,0.64 0.15523,0 0.46023,-0.288 0.67778,-0.64 z m 18.47144,-6.72 c 0.20261,-0.528 0.0894,-0.96 -0.25153,-0.96 -0.34095,0 -0.61992,0.432 -0.61992,0.96 0,0.528 0.1132,0.96 0.25153,0.96 0.13834,0 0.4173,-0.432 0.61992,-0.96 z m -18.71589,-2.448889 c -1.62544,-1.625437 -1.82903,-0.358727 -0.24053,1.496508 0.66266,0.773933 1.2126,1.0095 1.35555,0.580649 0.1323,-0.39688 -0.36946,-1.331601 -1.11502,-2.077157 z m -2.27694,-1.379711 c 0.95775,-1.778429 1.03919,-2.389596 0.40317,-3.025616 -0.88883,-0.88883 -2.71046,-0.09977 -3.20672,1.389025 -0.18193,0.545766 0.004,0.666929 0.52789,0.343365 0.60621,-0.37466 0.73503,0.0041 0.51387,1.510915 -0.38614,2.630945 0.27146,2.549691 1.76179,-0.217689 z m -11.01347,-0.872388 c 1.48986,-1.555079 1.60911,-1.93344 0.81671,-2.591077 -0.60034,-0.49824 -1.06821,-0.543059 -1.32537,-0.126963 -0.21862,0.353719 -0.82025,0.48089 -1.33698,0.282604 -0.71899,-0.275904 -0.9395,0.181298 -0.9395,1.947951 0,2.784988 0.50012,2.872525 2.78514,0.487485 z m -4.06514,-2.659012 c 0,-0.704 -0.11042,-1.28 -0.24536,-1.28 -0.13494,0 -0.39598,0.576 -0.58008,1.28 -0.18411,0.704 -0.0737,1.28 0.24535,1.28 0.31905,0 0.58009,-0.576 0.58009,-1.28 z m 13.52121,-0.757145 c 1.32405,0.217334 1.82407,-1.069973 1.13531,-2.922855 -0.60226,-1.620194 -2.49652,-1.969158 -2.49652,-0.459914 0,0.539047 -0.40018,1.133648 -0.88928,1.321334 -0.51188,0.196429 -0.75261,0.863853 -0.56724,1.572714 0.18903,0.722859 0.6224,1.042794 1.04928,0.774641 0.39998,-0.251256 1.19578,-0.379919 1.76845,-0.28592 z m 5.67879,-11.760626 c 0,-0.548774 -0.2927,-0.816873 -0.65044,-0.595777 -0.35774,0.221097 -0.48475,0.670093 -0.28223,0.997771 0.54863,0.887708 0.93267,0.722183 0.93267,-0.401994 z m -1.48281,-2.962229 c -0.20431,-0.510549 -0.35596,-0.358897 -0.38667,0.386667 -0.0278,0.674666 0.12347,1.052666 0.33614,0.84 0.21267,-0.212667 0.2354,-0.764667 0.0505,-1.226667 z m 5.1049,-3.577778 c 0.007,-1.230262 -1.29548,-0.571163 -2.01386,1.019182 -0.34747,0.769228 -0.85147,1.398596 -1.12,1.398596 -0.26853,0 -0.48823,0.309905 -0.48823,0.688677 0,0.378773 0.81394,0.01877 1.80876,-0.8 0.99483,-0.818772 1.81083,-1.856677 1.81333,-2.306455 z M 114.70721,210.47481 c -1.20074,-1.20074 -0.9213,-1.90966 0.664,-1.68451 0.792,0.11248 1.44,0.61251 1.44,1.11118 0,1.21848 -1.14644,1.53089 -2.104,0.57333 z m -49.735991,-1.8 c -0.5006,-0.80998 0.34664,-0.80998 1.6,0 0.82732,0.53466 0.81042,0.62175 -0.12223,0.6302 -0.59523,0.005 -1.26023,-0.2782 -1.47777,-0.6302 z m -4.16,-1.28 c 0,-0.704 0.13386,-1.28 0.29748,-1.28 0.16362,0 0.60575,0.576 0.98252,1.28 0.54675,1.02163 0.48671,1.28 -0.29749,1.28 -0.55585,0 -0.98251,-0.55585 -0.98251,-1.28 z m -3.78948,-1.01333 c 0.0307,-0.74557 0.18237,-0.89722 0.38667,-0.38667 0.18487,0.462 0.16214,1.014 -0.0505,1.22667 -0.21267,0.21266 -0.36393,-0.16534 -0.33614,-0.84 z M 163.2112,198.43481 c 0,-0.352 0.288,-0.64 0.64,-0.64 0.352,0 0.64,0.288 0.64,0.64 0,0.352 -0.288,0.64 -0.64,0.64 -0.352,0 -0.64,-0.288 -0.64,-0.64 z M 37.131219,182.39704 c 0,-0.37278 0.288,-0.49978 0.64,-0.28223 0.352,0.21755 0.64,0.52255 0.64,0.67777 0,0.15523 -0.288,0.28223 -0.64,0.28223 -0.352,0 -0.64,-0.305 -0.64,-0.67777 z m -5.12,-3.80223 c -0.7763,-0.50168 -0.68444,-0.62227 0.48,-0.6302 0.792,-0.005 1.44,0.2782 1.44,0.6302 0,0.80187 -0.6792,0.80187 -1.92,0 z m 8.64,-0.64 c 0.21755,-0.352 0.52254,-0.64 0.67777,-0.64 0.15522,0 0.28223,0.288 0.28223,0.64 0,0.352 -0.305,0.64 -0.67778,0.64 -0.37277,0 -0.49977,-0.288 -0.28222,-0.64 z m 119.806011,-2.8116 c -0.26189,-0.66638 -0.32537,-1.36238 -0.14109,-1.54667 0.58372,-0.58371 1.09732,0.37284 0.85273,1.58818 -0.22416,1.11381 -0.25839,1.11181 -0.71164,-0.0415 z M 41.262129,164.2239 c -0.24481,-1.63252 -0.28803,-3.12531 -0.096,-3.31731 0.192,-0.192 0.5494,0.98661 0.7942,2.61913 0.24482,1.63252 0.28803,3.12531 0.096,3.31731 -0.192,0.192 -0.5494,-0.98661 -0.7942,-2.61913 z m 7.43961,-17.36242 c 0.0307,-0.74557 0.18237,-0.89722 0.38667,-0.38667 0.18487,0.462 0.16214,1.014 -0.0505,1.22667 -0.21267,0.21266 -0.36393,-0.16534 -0.33614,-0.84 z m 4.42948,-6.02667 c 0,-0.352 0.288,-0.64 0.64,-0.64 0.352,0 0.64,0.288 0.64,0.64 0,0.352 -0.288,0.64 -0.64,0.64 -0.352,0 -0.64,-0.288 -0.64,-0.64 z m -35.2,-3.63162 c -4.65385,-3.86812 -7.78266,-6.72711 -8.96,-8.1873 -0.89115,-1.10525 -0.86821,-1.13899 0.32,-0.47048 1.33787,0.75273 13.03783,11.62712 12.48,11.59939 -0.176,-0.009 -1.904,-1.33247 -3.84,-2.94161 z m 33.28,0.6108 c 0,-0.6332 -0.53662,-1.48641 -1.19248,-1.896 -0.65587,-0.40959 -1.352,-1.3547 -1.54697,-2.10024 -0.29639,-1.13342 -0.1403,-1.28755 0.95264,-0.94067 0.87168,0.27667 1.16123,0.17882 0.86918,-0.29371 -0.48432,-0.78364 0.27174,-0.91623 1.82528,-0.32009 1.51098,0.57982 1.27099,2.11933 -0.26765,1.71697 -1.5987,-0.41807 -1.65889,0.71567 -0.11972,2.25485 0.95237,0.95236 1.00971,1.30095 0.32,1.94523 -0.67321,0.62887 -0.84028,0.55603 -0.84028,-0.36634 z m 3.84,0.10305 c 0,-0.54878 0.29269,-0.81687 0.65043,-0.59578 0.35775,0.2211 0.48475,0.67009 0.28223,0.99777 -0.54863,0.88771 -0.93266,0.72219 -0.93266,-0.40199 z m 0.64,-3.16223 c 0,-0.528 0.288,-0.96 0.64,-0.96 0.352,0 0.64,0.432 0.64,0.96 0,0.528 -0.288,0.96 -0.64,0.96 -0.352,0 -0.64,-0.432 -0.64,-0.96 z m -49.26147,-7.975 c -0.5178,-0.32747 -0.77485,-0.76202 -0.5712,-0.96567 0.20365,-0.20364 0.73457,0.0687 1.17983,0.6052 0.92326,1.11246 0.74623,1.21731 -0.60863,0.36047 z m -7.22472,-7.44656 c -3.95198,-3.78106 -5.8392,-6.12933 -3.22818,-4.0168 2.25553,1.82489 8.01391,7.67215 7.78297,7.9031 -0.13253,0.13253 -2.18218,-1.6163 -4.55479,-3.8863 z m 55.49172,3.5258 c -0.5492,-0.88863 0.66814,-2.14147 1.55075,-1.59598 0.73501,0.45426 0.26438,2.29174 -0.58698,2.29174 -0.29357,0 -0.72726,-0.31309 -0.96377,-0.69576 z m -2.84553,-5.06424 c 0,-0.352 0.30499,-0.64 0.67777,-0.64 0.37277,0 0.49977,0.288 0.28223,0.64 -0.21755,0.352 -0.52255,0.64 -0.67778,0.64 -0.15522,0 -0.28222,-0.288 -0.28222,-0.64 z m -2.23355,-1.29044 c 0.22109,-0.35774 0.67009,-0.48475 0.99777,-0.28223 0.88771,0.54863 0.72218,0.93267 -0.402,0.93267 -0.54877,0 -0.81687,-0.2927 -0.59577,-0.65044 z m -1.28645,-2.54956 c -0.21755,-0.352 0.0705,-0.64 0.64,-0.64 0.56954,0 0.85754,0.288 0.64,0.64 -0.21755,0.352 -0.50555,0.64 -0.64,0.64 -0.13446,0 -0.42246,-0.288 -0.64,-0.64 z m -61.69655,-6.83364 -5.37655,-5.39044 -1.829,-6.847957 c -2.70211,-10.116931 -2.70463,-10.128931 -1.9792,-9.40796 0.79086,0.786 2.44088,5.85251 3.42308,10.51082 0.6515,3.08989 2.59767,7.360337 3.22305,7.072277 0.12934,-0.0596 1.84734,1.50386 3.81778,3.47429 1.97043,1.97044 3.43779,3.58261 3.2608,3.58261 -0.17699,0 0.19948,0.576 0.83659,1.28 0.63711,0.704 0.89774,1.24328 0.57919,1.19839 -0.31856,-0.0449 -2.99864,-2.50729 -5.95574,-5.47203 z m 228.815601,3.9289 c -0.61759,-1.6094 -0.4354,-2.02467 0.31906,-0.72726 0.37356,0.6424 0.54438,1.30282 0.3796,1.4676 -0.16478,0.16478 -0.47918,-0.16837 -0.69866,-0.74034 z m -166.994991,-0.0645 c -0.73818,-0.73818 0.2396,-1.51073 1.91207,-1.51073 1.38574,0 1.51683,0.14913 0.84387,0.96 -0.83292,1.0036 -2.05821,1.24846 -2.75594,0.55073 z m -69.26899,-6.60319 c 1.39405,-1.5404 1.71351,-1.64307 1.23536,-0.39702 -0.19217,0.50078 -0.81499,1.08917 -1.38403,1.30754 -0.85,0.32617 -0.82347,0.16368 0.14867,-0.91052 z m 52.02378,-2.24399 c 0.20117,-1.05233 1.05478,-1.84213 2.70431,-2.502137 1.32569,-0.53044 2.59053,-1.43395 2.81073,-2.00781 0.49166,-1.28124 3.07728,-1.03624 3.4447,0.3264 0.23009,0.85333 0.18342,0.85333 -0.42007,0 -0.55703,-0.78765 -0.6943,-0.67275 -0.76455,0.64 -0.0471,0.88 -0.0465,1.926587 0.001,2.325747 0.1122,0.93775 -3.66652,1.5076 -3.98605,0.60111 -0.15165,-0.43021 -0.69555,-0.30474 -1.45562,0.3358 -2.1976,1.85196 -2.64528,1.90583 -2.33465,0.28089 z M 207.6912,96.034813 c 0.21755,-0.352 0.82754,-0.64 1.35554,-0.64 0.528,0 0.78201,0.288 0.56446,0.64 -0.21755,0.352 -0.82754,0.64 -1.35554,0.64 -0.528,0 -0.78201,-0.288 -0.56446,-0.64 z m -170.559981,-4.16 c 0,-0.528 0.288,-0.96 0.64,-0.96 0.352,0 0.64,0.432 0.64,0.96 0,0.528 -0.288,0.96 -0.64,0.96 -0.352,0 -0.64,-0.432 -0.64,-0.96 z m 4.8,-0.96 c -0.21755,-0.352 -0.10754,-0.64 0.24446,-0.64 0.352,0 0.81799,0.288 1.03554,0.64 0.21755,0.352 0.10754,0.64 -0.24446,0.64 -0.352,0 -0.81799,-0.288 -1.03554,-0.64 z m -93.18041,-5.00712 c 0.38901,-0.726875 1.02248,-1.516385 1.4077,-1.754465 0.50184,-0.310157 0.49989,-0.05818 -0.007,0.88871 -0.38901,0.726875 -1.02248,1.516385 -1.4077,1.754465 -0.50184,0.31016 -0.49989,0.0582 0.007,-0.88871 z m 26.94717,-4.048276 c -0.39455,-1.531533 -1.1132,-4.080602 -1.597,-5.664602 -0.4838,-1.584 -1.05728,-3.888 -1.27439,-5.12 -0.66721,-3.786022 2.52667,4.351654 3.4905,8.893434 0.96088,4.527865 0.45682,6.067594 -0.61911,1.891168 z m -24.00676,0.735398 c 0.21755,-0.352 0.52254,-0.64 0.67777,-0.64 0.15522,0 0.28223,0.288 0.28223,0.64 0,0.352 -0.305,0.64 -0.67777,0.64 -0.37278,0 -0.49978,-0.288 -0.28223,-0.64 z M 195.8512,82.526345 c 0,-0.389657 -0.44696,-0.53696 -0.99324,-0.327328 -0.56955,0.218554 -0.82645,0.111264 -0.60223,-0.251526 0.34869,-0.564192 -0.47858,-0.904378 -1.7415,-0.716141 -0.25133,0.03744 -0.27439,-0.407673 -0.0513,-0.989197 0.27222,-0.709382 0.15934,-0.90503 -0.34303,-0.594553 -0.4118,0.254521 -0.74874,0.157766 -0.74874,-0.215008 0,-0.372775 -0.41336,-0.677773 -0.91857,-0.677773 -0.50522,0 -1.28903,-1.02448 -1.74181,-2.276621 -0.723,-1.99943 -0.91767,-2.147469 -1.59884,-1.21591 -0.42659,0.583392 -1.05818,0.886073 -1.40353,0.672633 -0.34536,-0.213446 -0.75069,-0.0263 -0.90073,0.415911 -0.26572,0.783078 -1.7124,-0.551482 -3.98487,-3.676013 -0.88551,-1.217536 -0.93194,-1.176659 -0.9513,0.837773 -0.0112,1.164774 0.21628,1.971526 0.50549,1.792781 0.64159,-0.396525 2.72034,1.909932 2.19492,2.435353 -0.77483,0.774829 -1.46814,0.304077 -2.98373,-2.025907 -2.08023,-3.19801 -1.85001,-5.697747 0.76168,-8.270771 1.13371,-1.116922 2.06129,-1.715597 2.06129,-1.330394 0,0.38521 0.4828,1.233856 1.07288,1.885895 0.82249,0.908838 0.89717,1.361222 0.32,1.938393 -1.05486,1.054861 -0.93814,2.416877 0.20712,2.416877 0.528,0 0.96,0.32112 0.96,0.713606 0,0.444333 0.57709,0.335482 1.52935,-0.28846 1.40979,-0.923732 1.61324,-0.90937 2.60245,0.183699 0.59021,0.652166 0.98201,1.717977 0.87065,2.368461 -0.11134,0.650483 0.11978,1.123283 0.51362,1.050668 0.39384,-0.07261 1.68144,0.729869 2.86135,1.783284 2.41558,2.156633 4.83306,2.994265 5.81313,2.014188 0.44912,-0.449113 -0.28519,-1.208902 -2.32196,-2.402528 l -2.9788,-1.745689 1.40905,-1.499853 c 1.16691,-1.242125 1.26945,-1.668038 0.59673,-2.478611 -0.8799,-1.060224 -0.67899,-1.193171 0.89209,-0.590291 1.27729,0.490144 1.31721,2.094713 0.0641,2.57559 -0.71788,0.275475 -0.79016,0.659334 -0.29748,1.57991 0.83285,1.556205 1.94336,1.538356 3.9804,-0.064 2.0664,-1.625427 2.05053,-1.627827 3.59629,0.543002 l 1.29809,1.823002 -2.59194,1.696998 c -1.42557,0.933372 -2.81884,1.69702 -3.09615,1.69702 -0.27731,0 -0.86273,0.432 -1.30093,0.96 -0.92936,1.119814 -2.56,1.280032 -2.56,0.251526 z M -40.948781,74.473202 c 0,-0.352 0.576,-1.161273 1.28,-1.798387 0.704,-0.637114 1.28,-0.870387 1.28,-0.518387 0,0.352 -0.576,1.161273 -1.28,1.798387 -0.704,0.637114 -1.28,0.870387 -1.28,0.518387 z M 193.2912,71.768146 c 0,-1.085331 0.288,-1.973331 0.64,-1.973331 0.352,0 0.64,0.576 0.64,1.28 0,0.704 0.0216,1.4888 0.048,1.744 0.0264,0.2552 -0.2616,0.5672 -0.64,0.693331 -0.39149,0.130503 -0.688,-0.621101 -0.688,-1.744 z m -1.92,-0.693331 c 0,-1.167392 0.2656,-1.831392 0.64,-1.6 0.352,0.217549 0.64,0.937549 0.64,1.6 0,0.662451 -0.288,1.382451 -0.64,1.6 -0.3744,0.231392 -0.64,-0.432608 -0.64,-1.6 z m -17.6,0 c 0.21755,-0.352 0.52255,-0.64 0.67777,-0.64 0.15523,0 0.28223,0.288 0.28223,0.64 0,0.352 -0.305,0.64 -0.67777,0.64 -0.37278,0 -0.49978,-0.288 -0.28223,-0.64 z M 56.797879,69.408146 c -0.25667,-0.256665 -0.46666,-0.908262 -0.46666,-1.448 0,-0.720377 0.18933,-0.792 0.712,-0.269331 0.39159,0.391603 0.6016,1.0432 0.46666,1.448 -0.13493,0.4048 -0.45533,0.526003 -0.712,0.269331 z M 173.461,69.352596 c 0.005,-0.284781 0.28898,-0.949779 0.6302,-1.477779 0.53466,-0.827322 0.62176,-0.810426 0.6302,0.122227 0.005,0.595226 -0.2782,1.260224 -0.6302,1.477773 -0.352,0.217549 -0.63559,0.162547 -0.6302,-0.122227 z M 27.531219,64.773145 c 0,-0.29792 0.45309,-1.44992 1.00687,-2.56 1.03199,-2.068679 2.19313,-2.68626 2.19313,-1.166477 0,0.468518 0.72,1.237184 1.6,1.708147 0.88,0.470963 1.6,1.095629 1.6,1.388147 0,0.890343 -0.80354,0.601338 -2.33917,-0.841312 l -1.46167,-1.373165 -0.64374,1.693165 c -0.59882,1.575015 -1.95542,2.373882 -1.95542,1.151495 z m 32,-3.93833 c 0,-0.352 0.271,-0.64 0.60222,-0.64 0.33123,0 0.78023,0.288 0.99778,0.64 0.21754,0.352 -0.0534,0.64 -0.60223,0.64 -0.54878,0 -0.99777,-0.288 -0.99777,-0.64 z m -30.4,-2.56 c -0.21755,-0.352 -0.10754,-0.64 0.24446,-0.64 0.352,0 0.81799,0.288 1.03554,0.64 0.21754,0.352 0.10753,0.64 -0.24447,0.64 -0.352,0 -0.81799,-0.288 -1.03553,-0.64 z M 169.39787,55.288148 c -0.23467,-0.234666 -0.42667,-0.724266 -0.42667,-1.088 0,-0.401026 0.29809,-0.36324 0.75733,0.096 0.41654,0.416534 0.60854,0.906134 0.42667,1.088 -0.18187,0.181867 -0.52267,0.138667 -0.75733,-0.096 z m -6.82667,-3.733333 c 0,-0.176 0.576,-0.896 1.28,-1.6 1.28899,-1.288984 1.60931,-0.962861 0.89153,0.907656 -0.34752,0.905617 -2.17153,1.487162 -2.17153,0.692344 z m -43.8677,-1.64485 c -0.2328,-0.376667 -1.0418,-0.934411 -1.79778,-1.239432 -1.09653,-0.442428 -1.148,-0.562787 -0.25451,-0.595151 0.71474,-0.02589 1.12923,-0.561616 1.14551,-1.480567 0.0203,-1.146733 0.28098,-0.927949 1.28,1.074279 0.68997,1.382853 1.25449,2.606853 1.25449,2.72 0,0.505062 -1.24615,0.138248 -1.62771,-0.479129 z m 38.7477,0.0071 c 0,-0.372774 0.288,-0.499777 0.64,-0.282229 0.352,0.217548 0.64,0.522545 0.64,0.677771 0,0.155226 -0.288,0.282229 -0.64,0.282229 -0.352,0 -0.64,-0.304997 -0.64,-0.677771 z M 101.61129,47.64037 c -0.24744,-0.392956 0.11932,-1.229593 0.81502,-1.859192 0.72235,-0.653721 1.2649,-0.827666 1.2649,-0.405534 0,0.406556 -0.26688,0.739192 -0.59307,0.739192 -0.32619,0 -0.69294,0.504 -0.81502,1.12 -0.14191,0.71616 -0.38416,0.862384 -0.67183,0.405534 z m 19.6423,-4.798294 c -1.80492,-3.490325 -2.67582,-6.608402 -2.21128,-7.917049 0.38395,-1.081624 0.56575,-0.921353 1.22674,1.081445 0.42679,1.29319 0.68737,2.872605 0.57907,3.50981 -0.13175,0.775213 0.17368,1.129143 0.92309,1.069665 0.86383,-0.06856 1.12,0.407196 1.12,2.08 0,2.685482 -0.32207,2.720122 -1.63762,0.176129 z M 91.317879,37.368169 c -0.23467,-0.234666 -0.42667,-1.002666 -0.42667,-1.706666 0,-1.604917 0.84621,-0.851248 0.97275,0.86637 0.10332,1.402358 0.0689,1.455292 -0.54608,0.840296 z m 30.720001,-1.28 c -0.73641,-0.736426 -0.46607,-1.493354 0.53333,-1.493354 0.528,0 0.96,0.432 0.96,0.96 0,0.999407 -0.75692,1.269739 -1.49333,0.533333 z M 82.571209,27.874815 c 0,-0.528 0.27897,-0.96 0.61992,-0.96 0.34095,0 0.45414,0.432 0.25153,0.96 -0.20262,0.528 -0.48158,0.96 -0.61992,0.96 -0.13833,0 -0.25153,-0.432 -0.25153,-0.96 z m 13.76454,0.327331 c -0.22422,-0.362791 0.0327,-0.470085 0.60222,-0.251527 1.10875,0.425466 1.31161,0.884196 0.39102,0.884196 -0.33123,0 -0.77819,-0.284701 -0.99324,-0.632669 z m -9.28454,-2.247331 c 0,-0.528 0.1132,-0.96 0.25153,-0.96 0.13834,0 0.4173,0.432 0.61992,0.96 0.20261,0.528 0.0894,0.96 -0.25153,0.96 -0.34095,0 -0.61992,-0.432 -0.61992,-0.96 z m -26.54803,-0.300631 c -0.21096,-0.341347 0.68994,-1.069169 2.00199,-1.617382 2.10429,-0.879226 2.49705,-0.885264 3.33111,-0.05121 1.02449,1.024497 1.09216,1.001588 -3.26083,1.103895 -0.96567,0.02269 -1.59668,0.298679 -1.40223,0.613298 0.19444,0.314617 0.20953,0.572032 0.0335,0.572032 -0.176,0 -0.4926,-0.279283 -0.70357,-0.62063 z m 17.62106,-0.115144 c 0.23284,-1.696257 -0.0457,-2.464225 -0.89383,-2.464225 -0.47345,0 -1.40203,-0.598044 -2.06353,-1.328986 -1.18273,-1.306906 -1.1764,-1.348967 0.38081,-2.531466 1.39279,-1.057644 1.61038,-1.080253 1.80649,-0.187704 0.12264,0.558128 -0.16536,1.260877 -0.64,1.561666 -0.62243,0.394453 -0.45106,0.549622 0.61481,0.55669 0.81277,0.0054 1.31207,0.2779 1.10956,0.605577 -0.20252,0.327678 -0.0755,0.776674 0.28223,0.997771 0.8568,0.529536 0.83511,2.696776 -0.0324,3.232906 -0.37554,0.232098 -0.62942,0.03309 -0.56417,-0.442229 z m -27.53267,-1.984225 c -0.0112,-0.616 -0.34362,-1.12 -0.73872,-1.12 -0.46694,0 -0.41094,-0.3721 0.16,-1.063165 0.78855,-0.954461 0.69841,-1.028973 -0.88163,-0.728751 -2.33575,0.443812 -2.21923,-0.08164 0.49906,-2.250565 2.04177,-1.629132 2.22984,-2.044595 1.95558,-4.32 -0.30053,-2.493232 -0.28259,-2.517519 1.85929,-2.517519 2.57303,0 6.17393,1.282142 4.91007,1.748286 -0.4708,0.173643 -1.17641,-0.0047 -1.568,-0.396286 -0.39161,-0.3916 -1.65527,-0.712 -2.80816,-0.712 -1.90832,0 -2.04742,0.129039 -1.55214,1.44 0.38328,1.014529 0.19281,2.092728 -0.64464,3.649146 -1.29403,2.404934 -0.51378,3.852694 1.29032,2.394245 0.74031,-0.598461 0.84048,-0.590552 0.4637,0.03661 -0.27009,0.44956 -0.16718,0.799999 0.23492,0.799999 0.39354,0 0.55102,0.266204 0.34993,0.591564 -0.20108,0.32536 0.14192,0.723951 0.76223,0.885759 0.6683,0.174325 0.37428,0.324445 -0.72161,0.368436 -1.01719,0.04083 -2.23203,0.578241 -2.69964,1.194241 -0.80972,1.066667 -0.85118,1.066667 -0.87056,0 z m 4.14785,-5.738661 c 0.32869,-1.752067 0.18995,-2.331151 -0.63431,-2.647448 -1.13545,-0.435713 -0.75266,-1.70709 0.50388,-1.673537 0.41922,0.01119 1.28516,0.416788 1.9243,0.901318 1.00912,0.765015 1.05124,1.074959 0.32,2.354898 -0.46314,0.810664 -1.22289,1.886456 -1.68833,2.39065 -0.71013,0.76926 -0.77858,0.55599 -0.42554,-1.325881 z m 9.38728,-10.2613393 c 0.12802,-0.901423 0.71861,-1.513281 1.57905,-1.635933 1.11734,-0.159272 1.35684,0.110089 1.28,1.439547 -0.0726,1.256603 -0.43844,1.635587 -1.57905,1.635934 -1.17352,3.57e-4 -1.44167,-0.301213 -1.28,-1.439548 z m 13.32452,0.139914 c 0,-0.340953 0.432,-0.619914 0.96,-0.619914 0.528,0 0.96,0.113187 0.96,0.251527 0,0.13834 -0.432,0.417301 -0.96,0.619914 -0.528,0.202613 -0.96,0.08943 -0.96,-0.251527 z m -5.76,-0.54527 c 0,-0.393054 0.68482,-0.714644 1.52184,-0.714644 0.83701,0 2.55576,-0.432 3.81944,-0.96 2.63409,-1.100593 2.97872,-1.152973 2.97872,-0.452739 0,0.278993 -1.368,0.886985 -3.04,1.351092 -1.672,0.464108 -3.544,0.98943 -4.16,1.167383 -0.616,0.177954 -1.12,0.002 -1.12,-0.391092 z m -1.28,-2.614558 c 0,-0.832377 0.31205,-1.140168 0.91959,-0.907034 0.50577,0.194083 0.76295,0.761045 0.57152,1.259914 -0.51231,1.335062 -1.49111,1.103424 -1.49111,-0.35288 z m -6.21714,-2.13244 c 0.77943,-0.809794 1.53537,-1.38756 1.67988,-1.283924 0.37347,0.267845 -1.95497,2.756278 -2.57906,2.756278 -0.28487,0 0.11977,-0.662559 0.89918,-1.472354 z m -5.1914,-0.193398 c 0.57355,-0.57355 1.34969,-0.937391 1.72476,-0.808533 0.37507,0.128857 -0.0942,0.598126 -1.04282,1.042819 -1.594,0.747236 -1.6457,0.729474 -0.68194,-0.234286 z m 11.1952,-0.04091 c -0.23466,-0.234666 -0.41791,-0.882666 -0.4072,-1.44000001 0.016,-0.832196 0.14087,-0.804548 0.69866,0.154669 0.68914,1.18508201 0.48935,2.06613901 -0.29146,1.28533101 z m -2.02021,-4.063772 c 0.22109,-0.357742 0.67009,-0.484745 0.99777,-0.282229 0.8877,0.548633 0.72218,0.932668 -0.402,0.932668 -0.54877,0 -0.81687,-0.292698 -0.59577,-0.650439 z"
       id="path76" />
    <text
       xml:space="preserve"
       style="font-style:normal;font-weight:normal;font-size:40px;line-height:0;font-family:sans-serif;fill:#f2f2f2;fill-opacity:1;stroke:none"
       x="52.174145"
       y="172.48239"
       id="text94"><tspan
         sodipodi:role="line"
         x="52.174145"
         y="172.48239"
         id="tspan96"
         style="font-size:24px;line-height:1.05;fill:#f2f2f2">Podemos</tspan><tspan
         sodipodi:role="line"
         x="52.174145"
         y="197.68239"
         style="font-size:24px;line-height:1.05;fill:#f2f2f2"
         id="tspan100">Aprender</tspan></text>
  </g>
</svg>
